G04 ================== begin FILE IDENTIFICATION RECORD ==================*
G04 Layout Name:  mlpmcu-Rev1.9.brd*
G04 Film Name:    LaPi-SilkscreenTop-Rev1-9-Final*
G04 File Format:  Gerber RS274X*
G04 File Origin:  Cadence Allegro 16.5-P002*
G04 Origin Date:  Wed Apr 10 14:32:15 2013*
G04 *
G04 Layer:  MANUFACTURING/AUTOSILK_TOP*
G04 Layer:  BOARD GEOMETRY/OUTLINE*
G04 *
G04 Offset:    (0.00 0.00)*
G04 Mirror:    No*
G04 Mode:      Positive*
G04 Rotation:  0*
G04 FullContactRelief:  No*
G04 UndefLineWidth:     1.00*
G04 ================== end FILE IDENTIFICATION RECORD ====================*
%FSAX25Y25*MOIN*%
%IR0*IPPOS*OFA0.00000B0.00000*MIA0B0*SFA1.00000B1.00000*%
%ADD10C,.001*%
%ADD11C,.00472*%
G75*
%LPD*%
G75*
G54D10*
G01X0Y0D02*
Y0470000D01*
X0320000D01*
Y0D01*
X0D01*
G01X0027747Y0099000D02*
Y0106500D01*
X0029613D01*
X0030360Y0106125D01*
X0030920Y0105625D01*
X0031387Y0104875D01*
X0031760Y0104000D01*
X0031853Y0102750D01*
X0031760Y0101500D01*
X0031387Y0100625D01*
X0030920Y0099875D01*
X0030360Y0099375D01*
X0029613Y0099000D01*
X0027747D01*
G01X0035900Y0102375D02*
X0038887D01*
X0038607Y0103250D01*
X0038140Y0103750D01*
X0037487Y0104000D01*
X0036833Y0103875D01*
X0036273Y0103500D01*
X0035900Y0102625D01*
X0035713Y0101875D01*
Y0101125D01*
X0035900Y0100375D01*
X0036367Y0099625D01*
X0036927Y0099125D01*
X0037580Y0099000D01*
X0038233Y0099250D01*
X0038887Y0100000D01*
G01X0043120Y0099000D02*
Y0106500D01*
G01Y0102750D02*
X0043587Y0103500D01*
X0044147Y0103875D01*
X0044707Y0104000D01*
X0045547Y0103750D01*
X0046107Y0103250D01*
X0046480Y0102375D01*
Y0101375D01*
X0046293Y0100375D01*
X0045920Y0099625D01*
X0045267Y0099125D01*
X0044707Y0099000D01*
X0044147Y0099125D01*
X0043587Y0099500D01*
X0043120Y0100125D01*
G01X0050713Y0104000D02*
Y0100500D01*
X0051087Y0099625D01*
X0051647Y0099125D01*
X0052300Y0099000D01*
X0052953Y0099125D01*
X0053513Y0099625D01*
X0053887Y0100500D01*
G01Y0099000D02*
Y0104000D01*
G01X0058493Y0097125D02*
X0059147Y0096625D01*
X0059893Y0096500D01*
X0060547Y0096625D01*
X0061107Y0097250D01*
X0061480Y0098125D01*
Y0104000D01*
G01Y0103000D02*
X0061107Y0103500D01*
X0060547Y0103875D01*
X0059893Y0104000D01*
X0059147Y0103750D01*
X0058680Y0103250D01*
X0058307Y0102375D01*
X0058120Y0101500D01*
X0058213Y0100750D01*
X0058587Y0099875D01*
X0059147Y0099250D01*
X0059893Y0099000D01*
X0060453Y0099125D01*
X0061107Y0099625D01*
X0061480Y0100125D01*
G01X0002000Y0103850D02*
X0005100D01*
X0004480Y0104310D01*
G01X0002000D02*
Y0103390D01*
G01X0008183Y0105000D02*
X0008500Y0104500D01*
X0008880Y0104167D01*
X0009323Y0104000D01*
X0009830Y0104167D01*
X0010210Y0104500D01*
X0010590Y0105000D01*
X0010717Y0105667D01*
Y0109000D01*
G01X0014550Y0104000D02*
X0014993Y0104083D01*
X0015500Y0104333D01*
X0015817Y0104750D01*
X0015943Y0105333D01*
X0015817Y0105917D01*
X0015437Y0106417D01*
X0014867Y0106667D01*
X0014233D01*
X0013853Y0106833D01*
X0013537Y0107250D01*
X0013410Y0107833D01*
X0013600Y0108417D01*
X0014043Y0108833D01*
X0014550Y0109000D01*
X0015057Y0108833D01*
X0015500Y0108417D01*
X0015690Y0107833D01*
X0015563Y0107250D01*
X0015247Y0106833D01*
X0014867Y0106667D01*
X0014233D01*
X0013663Y0106417D01*
X0013283Y0105917D01*
X0013157Y0105333D01*
X0013283Y0104750D01*
X0013600Y0104333D01*
X0014107Y0104083D01*
X0014550Y0104000D01*
G01X0064000Y0181000D02*
Y0131500D01*
X0001500D01*
Y0181000D01*
X0064000D01*
G01X0027633Y0116000D02*
Y0121000D01*
X0029217D01*
X0029723Y0120750D01*
X0030040Y0120417D01*
X0030167Y0119750D01*
X0030040Y0119083D01*
X0029660Y0118667D01*
X0029217Y0118417D01*
X0027633D01*
G01X0029217D02*
X0030167Y0116000D01*
G01X0034000D02*
Y0121000D01*
X0033240Y0120000D01*
G01Y0116000D02*
X0034760D01*
G01X0037707Y0117000D02*
X0038087Y0116417D01*
X0038593Y0116083D01*
X0039163Y0116000D01*
X0039670Y0116083D01*
X0040177Y0116500D01*
X0040493Y0117000D01*
X0040557Y0117500D01*
X0040430Y0118083D01*
X0039987Y0118500D01*
X0039543Y0118667D01*
X0038973D01*
G01X0039543D02*
X0039923Y0118917D01*
X0040240Y0119333D01*
X0040367Y0119833D01*
X0040240Y0120333D01*
X0039923Y0120750D01*
X0039353Y0121000D01*
X0038783Y0120917D01*
X0038213Y0120583D01*
G01X0002633Y0147500D02*
Y0152500D01*
X0004217D01*
X0004723Y0152250D01*
X0005040Y0151917D01*
X0005167Y0151250D01*
X0005040Y0150583D01*
X0004660Y0150167D01*
X0004217Y0149917D01*
X0002633D01*
G01X0004217D02*
X0005167Y0147500D01*
G01X0007670Y0148167D02*
X0008177Y0147750D01*
X0008747Y0147500D01*
X0009253D01*
X0009760Y0147750D01*
X0010140Y0148167D01*
X0010330Y0148750D01*
X0010203Y0149333D01*
X0009887Y0149833D01*
X0009317Y0150167D01*
X0008557Y0150333D01*
X0008113Y0150667D01*
X0007923Y0151250D01*
X0008050Y0151833D01*
X0008367Y0152250D01*
X0008810Y0152500D01*
X0009253D01*
X0009697Y0152333D01*
X0010077Y0151917D01*
G01X0014100Y0152500D02*
Y0147500D01*
G01X0012643Y0152500D02*
X0015557D01*
G01X0002507Y0163000D02*
Y0159417D01*
X0002760Y0158667D01*
X0003267Y0158167D01*
X0003900Y0158000D01*
X0004533Y0158167D01*
X0005040Y0158667D01*
X0005293Y0159417D01*
Y0163000D01*
G01X0007670Y0158667D02*
X0008177Y0158250D01*
X0008747Y0158000D01*
X0009253D01*
X0009760Y0158250D01*
X0010140Y0158667D01*
X0010330Y0159250D01*
X0010203Y0159833D01*
X0009887Y0160333D01*
X0009317Y0160667D01*
X0008557Y0160833D01*
X0008113Y0161167D01*
X0007923Y0161750D01*
X0008050Y0162333D01*
X0008367Y0162750D01*
X0008810Y0163000D01*
X0009253D01*
X0009697Y0162833D01*
X0010077Y0162417D01*
G01X0012833Y0158000D02*
Y0163000D01*
X0014417D01*
X0014923Y0162750D01*
X0015240Y0162417D01*
X0015367Y0161750D01*
X0015240Y0161083D01*
X0014860Y0160667D01*
X0014417Y0160417D01*
X0012833D01*
G01X0014417D02*
X0015367Y0158000D01*
G01X0007823Y0137500D02*
Y0140833D01*
G01Y0140000D02*
X0008077Y0140417D01*
X0008457Y0140750D01*
X0008963Y0140833D01*
X0009407Y0140750D01*
X0009787Y0140417D01*
X0009977Y0139833D01*
Y0137500D01*
G01X0015267D02*
X0012733D01*
Y0142500D01*
X0015267D01*
G01X0014253Y0140083D02*
X0012733D01*
G01X0003127Y0174000D02*
Y0180300D01*
X0004693D01*
X0005320Y0179985D01*
X0005790Y0179565D01*
X0006182Y0178935D01*
X0006495Y0178200D01*
X0006573Y0177150D01*
X0006495Y0176100D01*
X0006182Y0175365D01*
X0005790Y0174735D01*
X0005320Y0174315D01*
X0004693Y0174000D01*
X0003127D01*
G01X0009975Y0176835D02*
X0012482D01*
X0012247Y0177570D01*
X0011855Y0177990D01*
X0011307Y0178200D01*
X0010758Y0178095D01*
X0010288Y0177780D01*
X0009975Y0177045D01*
X0009818Y0176415D01*
Y0175785D01*
X0009975Y0175155D01*
X0010367Y0174525D01*
X0010837Y0174105D01*
X0011385Y0174000D01*
X0011933Y0174210D01*
X0012482Y0174840D01*
G01X0016040Y0174000D02*
Y0180300D01*
G01Y0177150D02*
X0016432Y0177780D01*
X0016902Y0178095D01*
X0017372Y0178200D01*
X0018077Y0177990D01*
X0018547Y0177570D01*
X0018860Y0176835D01*
Y0175995D01*
X0018703Y0175155D01*
X0018390Y0174525D01*
X0017842Y0174105D01*
X0017372Y0174000D01*
X0016902Y0174105D01*
X0016432Y0174420D01*
X0016040Y0174945D01*
G01X0022418Y0178200D02*
Y0175260D01*
X0022732Y0174525D01*
X0023202Y0174105D01*
X0023750Y0174000D01*
X0024298Y0174105D01*
X0024768Y0174525D01*
X0025082Y0175260D01*
G01Y0174000D02*
Y0178200D01*
G01X0028953Y0172425D02*
X0029502Y0172005D01*
X0030128Y0171900D01*
X0030677Y0172005D01*
X0031147Y0172530D01*
X0031460Y0173265D01*
Y0178200D01*
G01Y0177360D02*
X0031147Y0177780D01*
X0030677Y0178095D01*
X0030128Y0178200D01*
X0029502Y0177990D01*
X0029110Y0177570D01*
X0028797Y0176835D01*
X0028640Y0176100D01*
X0028718Y0175470D01*
X0029032Y0174735D01*
X0029502Y0174210D01*
X0030128Y0174000D01*
X0030598Y0174105D01*
X0031147Y0174525D01*
X0031460Y0174945D01*
G01X0044373Y0179775D02*
X0043903Y0180090D01*
X0043355Y0180300D01*
X0042728D01*
X0042023Y0179985D01*
X0041475Y0179460D01*
X0041083Y0178830D01*
X0040770Y0177780D01*
X0040692Y0176835D01*
X0040848Y0175890D01*
X0041083Y0175260D01*
X0041553Y0174630D01*
X0042102Y0174210D01*
X0042650Y0174000D01*
X0043198D01*
X0043747Y0174210D01*
X0044217Y0174525D01*
X0044608Y0174945D01*
G01X0048950Y0180300D02*
Y0174000D01*
G01X0047148Y0180300D02*
X0050752D01*
G01X0053683Y0174000D02*
Y0180300D01*
X0055642D01*
X0056268Y0179985D01*
X0056660Y0179565D01*
X0056817Y0178725D01*
X0056660Y0177885D01*
X0056190Y0177360D01*
X0055642Y0177045D01*
X0053683D01*
G01X0055642D02*
X0056817Y0174000D01*
G01X0059983Y0180300D02*
Y0174000D01*
X0063117D01*
G01X0021000Y0328000D02*
Y0182500D01*
X0308000D01*
Y0328000D01*
X0021000D01*
G01X0016133Y0168000D02*
X0016450Y0167500D01*
X0016830Y0167167D01*
X0017273Y0167000D01*
X0017780Y0167167D01*
X0018160Y0167500D01*
X0018540Y0168000D01*
X0018667Y0168667D01*
Y0172000D01*
G01X0022500Y0167000D02*
Y0172000D01*
X0021740Y0171000D01*
G01Y0167000D02*
X0023260D01*
G01X0028360D02*
Y0172000D01*
X0026017Y0168417D01*
X0029183D01*
G01X0027133Y0283000D02*
Y0288000D01*
X0028717D01*
X0029223Y0287750D01*
X0029540Y0287417D01*
X0029667Y0286750D01*
X0029540Y0286083D01*
X0029160Y0285667D01*
X0028717Y0285417D01*
X0027133D01*
G01X0028717D02*
X0029667Y0283000D01*
G01X0034767D02*
X0032233D01*
Y0288000D01*
X0034767D01*
G01X0033753Y0285583D02*
X0032233D01*
G01X0037270Y0283667D02*
X0037777Y0283250D01*
X0038347Y0283000D01*
X0038853D01*
X0039360Y0283250D01*
X0039740Y0283667D01*
X0039930Y0284250D01*
X0039803Y0284833D01*
X0039487Y0285333D01*
X0038917Y0285667D01*
X0038157Y0285833D01*
X0037713Y0286167D01*
X0037523Y0286750D01*
X0037650Y0287333D01*
X0037967Y0287750D01*
X0038410Y0288000D01*
X0038853D01*
X0039297Y0287833D01*
X0039677Y0287417D01*
G01X0027133Y0307500D02*
Y0302500D01*
X0029667D01*
G01X0034767D02*
X0032233D01*
Y0307500D01*
X0034767D01*
G01X0033753Y0305083D02*
X0032233D01*
G01X0037207Y0302500D02*
Y0307500D01*
X0038473D01*
X0038980Y0307250D01*
X0039360Y0306917D01*
X0039677Y0306417D01*
X0039930Y0305833D01*
X0039993Y0305000D01*
X0039930Y0304167D01*
X0039677Y0303583D01*
X0039360Y0303083D01*
X0038980Y0302750D01*
X0038473Y0302500D01*
X0037207D01*
G01X0022007Y0469500D02*
Y0465917D01*
X0022260Y0465167D01*
X0022767Y0464667D01*
X0023400Y0464500D01*
X0024033Y0464667D01*
X0024540Y0465167D01*
X0024793Y0465917D01*
Y0469500D01*
G01X0027043Y0464500D02*
Y0469500D01*
X0029957Y0464500D01*
Y0469500D01*
G01X0032840D02*
X0034360D01*
G01X0033600D02*
Y0464500D01*
G01X0032840D02*
X0034360D01*
G01X0037117Y0469500D02*
X0038700Y0464500D01*
X0040283Y0469500D01*
G01X0045067Y0464500D02*
X0042533D01*
Y0469500D01*
X0045067D01*
G01X0044053Y0467083D02*
X0042533D01*
G01X0047633Y0464500D02*
Y0469500D01*
X0049217D01*
X0049723Y0469250D01*
X0050040Y0468917D01*
X0050167Y0468250D01*
X0050040Y0467583D01*
X0049660Y0467167D01*
X0049217Y0466917D01*
X0047633D01*
G01X0049217D02*
X0050167Y0464500D01*
G01X0052670Y0465167D02*
X0053177Y0464750D01*
X0053747Y0464500D01*
X0054253D01*
X0054760Y0464750D01*
X0055140Y0465167D01*
X0055330Y0465750D01*
X0055203Y0466333D01*
X0054887Y0466833D01*
X0054317Y0467167D01*
X0053557Y0467333D01*
X0053113Y0467667D01*
X0052923Y0468250D01*
X0053050Y0468833D01*
X0053367Y0469250D01*
X0053810Y0469500D01*
X0054253D01*
X0054697Y0469333D01*
X0055077Y0468917D01*
G01X0057517Y0464500D02*
X0059100Y0469500D01*
X0060683Y0464500D01*
G01X0060113Y0466250D02*
X0058087D01*
G01X0062933Y0469500D02*
Y0464500D01*
X0065467D01*
G01X0073070Y0465167D02*
X0073577Y0464750D01*
X0074147Y0464500D01*
X0074653D01*
X0075160Y0464750D01*
X0075540Y0465167D01*
X0075730Y0465750D01*
X0075603Y0466333D01*
X0075287Y0466833D01*
X0074717Y0467167D01*
X0073957Y0467333D01*
X0073513Y0467667D01*
X0073323Y0468250D01*
X0073450Y0468833D01*
X0073767Y0469250D01*
X0074210Y0469500D01*
X0074653D01*
X0075097Y0469333D01*
X0075477Y0468917D01*
G01X0079500Y0464500D02*
X0078993Y0464583D01*
X0078550Y0464917D01*
X0078170Y0465417D01*
X0077917Y0466000D01*
X0077790Y0466667D01*
Y0467333D01*
X0077917Y0468000D01*
X0078170Y0468583D01*
X0078550Y0469083D01*
X0078993Y0469417D01*
X0079500Y0469500D01*
X0080007Y0469417D01*
X0080450Y0469083D01*
X0080830Y0468583D01*
X0081083Y0468000D01*
X0081210Y0467333D01*
Y0466667D01*
X0081083Y0466000D01*
X0080830Y0465417D01*
X0080450Y0464917D01*
X0080007Y0464583D01*
X0079500Y0464500D01*
G01X0085993Y0469083D02*
X0085613Y0469333D01*
X0085170Y0469500D01*
X0084663D01*
X0084093Y0469250D01*
X0083650Y0468833D01*
X0083333Y0468333D01*
X0083080Y0467500D01*
X0083017Y0466750D01*
X0083143Y0466000D01*
X0083333Y0465500D01*
X0083713Y0465000D01*
X0084157Y0464667D01*
X0084600Y0464500D01*
X0085043D01*
X0085487Y0464667D01*
X0085867Y0464917D01*
X0086183Y0465250D01*
G01X0088307Y0464500D02*
Y0469500D01*
G01X0090713D02*
X0088307Y0466417D01*
G01X0091093Y0464500D02*
X0089383Y0467833D01*
G01X0096067Y0464500D02*
X0093533D01*
Y0469500D01*
X0096067D01*
G01X0095053Y0467083D02*
X0093533D01*
G01X0099900Y0469500D02*
Y0464500D01*
G01X0098443Y0469500D02*
X0101357D01*
G01X0108833Y0462833D02*
X0110100Y0469500D01*
G01X0111367D02*
X0110100Y0462833D01*
G01X0108200Y0465333D02*
X0112000D01*
G01Y0467000D02*
X0108200D01*
G01X0115200Y0464500D02*
Y0469500D01*
X0114440Y0468500D01*
G01Y0464500D02*
X0115960D01*
G01X0007422Y0468083D02*
X0007652Y0468393D01*
X0007920Y0468548D01*
X0008227Y0468600D01*
X0008610Y0468497D01*
X0008878Y0468238D01*
X0008955Y0467928D01*
X0008917Y0467618D01*
X0008763Y0467360D01*
X0007997Y0466843D01*
X0007652Y0466482D01*
X0007422Y0465965D01*
X0007345Y0465500D01*
X0008955D01*
G01X0010407Y0465965D02*
X0010637Y0465707D01*
X0010905Y0465552D01*
X0011250Y0465500D01*
X0011595Y0465603D01*
X0011863Y0465810D01*
X0012055Y0466172D01*
X0012093Y0466585D01*
X0012017Y0466998D01*
X0011825Y0467257D01*
X0011557Y0467463D01*
X0011288Y0467515D01*
X0011020Y0467463D01*
X0010675Y0467257D01*
X0010790Y0468600D01*
X0011825D01*
G01X0006422Y0440083D02*
X0006652Y0440393D01*
X0006920Y0440548D01*
X0007227Y0440600D01*
X0007610Y0440497D01*
X0007878Y0440238D01*
X0007955Y0439928D01*
X0007917Y0439618D01*
X0007763Y0439360D01*
X0006997Y0438843D01*
X0006652Y0438482D01*
X0006422Y0437965D01*
X0006345Y0437500D01*
X0007955D01*
G01X0009522Y0438792D02*
X0009790Y0439153D01*
X0010020Y0439360D01*
X0010327Y0439463D01*
X0010595Y0439360D01*
X0010787Y0439153D01*
X0010940Y0438843D01*
X0010978Y0438482D01*
X0010940Y0438172D01*
X0010787Y0437862D01*
X0010557Y0437603D01*
X0010288Y0437500D01*
X0009982Y0437603D01*
X0009713Y0437913D01*
X0009560Y0438378D01*
X0009522Y0438895D01*
X0009598Y0439567D01*
X0009713Y0439928D01*
X0009905Y0440290D01*
X0010173Y0440548D01*
X0010442Y0440600D01*
X0010710Y0440497D01*
X0010902Y0440238D01*
G01X0034933Y0002000D02*
Y0009500D01*
X0037267D01*
X0038013Y0009125D01*
X0038480Y0008625D01*
X0038667Y0007625D01*
X0038480Y0006625D01*
X0037920Y0006000D01*
X0037267Y0005625D01*
X0034933D01*
G01X0037267D02*
X0038667Y0002000D01*
G01X0046167D02*
X0042433D01*
Y0009500D01*
X0046167D01*
G01X0044673Y0005875D02*
X0042433D01*
G01X0049840Y0003000D02*
X0050587Y0002375D01*
X0051427Y0002000D01*
X0052173D01*
X0052920Y0002375D01*
X0053480Y0003000D01*
X0053760Y0003875D01*
X0053573Y0004750D01*
X0053107Y0005500D01*
X0052267Y0006000D01*
X0051147Y0006250D01*
X0050493Y0006750D01*
X0050213Y0007625D01*
X0050400Y0008500D01*
X0050867Y0009125D01*
X0051520Y0009500D01*
X0052173D01*
X0052827Y0009250D01*
X0053387Y0008625D01*
G01X0061167Y0002000D02*
X0057433D01*
Y0009500D01*
X0061167D01*
G01X0059673Y0005875D02*
X0057433D01*
G01X0066800Y0009500D02*
Y0002000D01*
G01X0064653Y0009500D02*
X0068947D01*
G01X0045793Y0039383D02*
X0045413Y0039633D01*
X0044970Y0039800D01*
X0044463D01*
X0043893Y0039550D01*
X0043450Y0039133D01*
X0043133Y0038633D01*
X0042880Y0037800D01*
X0042817Y0037050D01*
X0042943Y0036300D01*
X0043133Y0035800D01*
X0043513Y0035300D01*
X0043957Y0034967D01*
X0044400Y0034800D01*
X0044843D01*
X0045287Y0034967D01*
X0045667Y0035217D01*
X0045983Y0035550D01*
G01X0049500Y0034800D02*
Y0039800D01*
X0048740Y0038800D01*
G01Y0034800D02*
X0050260D01*
G01X0054600Y0039800D02*
X0054093Y0039633D01*
X0053713Y0039217D01*
X0053460Y0038717D01*
X0053270Y0038050D01*
X0053207Y0037300D01*
X0053270Y0036550D01*
X0053460Y0035883D01*
X0053713Y0035383D01*
X0054093Y0034967D01*
X0054600Y0034800D01*
X0055107Y0034967D01*
X0055487Y0035383D01*
X0055740Y0035883D01*
X0055930Y0036550D01*
X0055993Y0037300D01*
X0055930Y0038050D01*
X0055740Y0038717D01*
X0055487Y0039217D01*
X0055107Y0039633D01*
X0054600Y0039800D01*
G01X0035000Y0054633D02*
X0030000D01*
Y0056217D01*
X0030250Y0056723D01*
X0030583Y0057040D01*
X0031250Y0057167D01*
X0031917Y0057040D01*
X0032333Y0056660D01*
X0032583Y0056217D01*
Y0054633D01*
G01Y0056217D02*
X0035000Y0057167D01*
G01Y0061000D02*
X0030000D01*
X0031000Y0060240D01*
G01X0035000D02*
Y0061760D01*
G01Y0066100D02*
X0034917Y0066543D01*
X0034667Y0067050D01*
X0034250Y0067367D01*
X0033667Y0067493D01*
X0033083Y0067367D01*
X0032583Y0066987D01*
X0032333Y0066417D01*
Y0065783D01*
X0032167Y0065403D01*
X0031750Y0065087D01*
X0031167Y0064960D01*
X0030583Y0065150D01*
X0030167Y0065593D01*
X0030000Y0066100D01*
X0030167Y0066607D01*
X0030583Y0067050D01*
X0031167Y0067240D01*
X0031750Y0067113D01*
X0032167Y0066797D01*
X0032333Y0066417D01*
Y0065783D01*
X0032583Y0065213D01*
X0033083Y0064833D01*
X0033667Y0064707D01*
X0034250Y0064833D01*
X0034667Y0065150D01*
X0034917Y0065657D01*
X0035000Y0066100D01*
G01X0042150Y0056500D02*
Y0059600D01*
X0041690Y0058980D01*
G01Y0056500D02*
X0042610D01*
G01X0042150D02*
Y0059600D01*
X0041690Y0058980D01*
G01Y0056500D02*
X0042610D01*
G01X0043293Y0095583D02*
X0042913Y0095833D01*
X0042470Y0096000D01*
X0041963D01*
X0041393Y0095750D01*
X0040950Y0095333D01*
X0040633Y0094833D01*
X0040380Y0094000D01*
X0040317Y0093250D01*
X0040443Y0092500D01*
X0040633Y0092000D01*
X0041013Y0091500D01*
X0041457Y0091167D01*
X0041900Y0091000D01*
X0042343D01*
X0042787Y0091167D01*
X0043167Y0091417D01*
X0043483Y0091750D01*
G01X0047000Y0091000D02*
Y0096000D01*
X0046240Y0095000D01*
G01Y0091000D02*
X0047760D01*
G01X0052100D02*
Y0096000D01*
X0051340Y0095000D01*
G01Y0091000D02*
X0052860D01*
G01X0035133Y0147500D02*
Y0152500D01*
X0036653D01*
X0037160Y0152250D01*
X0037540Y0151667D01*
X0037667Y0151000D01*
X0037540Y0150333D01*
X0037223Y0149833D01*
X0036653Y0149583D01*
X0035133D01*
G01X0039600Y0152500D02*
X0040487Y0147500D01*
X0041500Y0152500D01*
X0042513Y0147500D01*
X0043400Y0152500D01*
G01X0045333Y0147500D02*
Y0152500D01*
X0046917D01*
X0047423Y0152250D01*
X0047740Y0151917D01*
X0047867Y0151250D01*
X0047740Y0150583D01*
X0047360Y0150167D01*
X0046917Y0149917D01*
X0045333D01*
G01X0046917D02*
X0047867Y0147500D01*
G01X0034507Y0163000D02*
Y0159417D01*
X0034760Y0158667D01*
X0035267Y0158167D01*
X0035900Y0158000D01*
X0036533Y0158167D01*
X0037040Y0158667D01*
X0037293Y0159417D01*
Y0163000D01*
G01X0039670Y0158667D02*
X0040177Y0158250D01*
X0040747Y0158000D01*
X0041253D01*
X0041760Y0158250D01*
X0042140Y0158667D01*
X0042330Y0159250D01*
X0042203Y0159833D01*
X0041887Y0160333D01*
X0041317Y0160667D01*
X0040557Y0160833D01*
X0040113Y0161167D01*
X0039923Y0161750D01*
X0040050Y0162333D01*
X0040367Y0162750D01*
X0040810Y0163000D01*
X0041253D01*
X0041697Y0162833D01*
X0042077Y0162417D01*
G01X0044833Y0158000D02*
Y0163000D01*
X0046417D01*
X0046923Y0162750D01*
X0047240Y0162417D01*
X0047367Y0161750D01*
X0047240Y0161083D01*
X0046860Y0160667D01*
X0046417Y0160417D01*
X0044833D01*
G01X0046417D02*
X0047367Y0158000D01*
G01X0039823Y0137500D02*
Y0140833D01*
G01Y0140000D02*
X0040077Y0140417D01*
X0040457Y0140750D01*
X0040963Y0140833D01*
X0041407Y0140750D01*
X0041787Y0140417D01*
X0041977Y0139833D01*
Y0137500D01*
G01X0047267D02*
X0044733D01*
Y0142500D01*
X0047267D01*
G01X0046253Y0140083D02*
X0044733D01*
G01X0052183Y0167500D02*
X0052500Y0167000D01*
X0052880Y0166667D01*
X0053323Y0166500D01*
X0053830Y0166667D01*
X0054210Y0167000D01*
X0054590Y0167500D01*
X0054717Y0168167D01*
Y0171500D01*
G01X0058423Y0166500D02*
X0058550Y0167583D01*
X0058740Y0168500D01*
X0058993Y0169333D01*
X0059310Y0170250D01*
X0059817Y0171500D01*
X0057283D01*
G01X0036380Y0249550D02*
X0037147D01*
Y0248620D01*
X0036917Y0248310D01*
X0036648Y0248103D01*
X0036265Y0248000D01*
X0035882Y0248103D01*
X0035613Y0248310D01*
X0035383Y0248620D01*
X0035230Y0248982D01*
X0035153Y0249395D01*
Y0249757D01*
X0035230Y0250067D01*
X0035383Y0250428D01*
X0035613Y0250738D01*
X0035843Y0250945D01*
X0036150Y0251100D01*
X0036418D01*
X0036725Y0250997D01*
X0036955Y0250790D01*
G01X0038368Y0248000D02*
Y0251100D01*
X0040132Y0248000D01*
Y0251100D01*
G01X0041507Y0248000D02*
Y0251100D01*
X0042273D01*
X0042580Y0250945D01*
X0042810Y0250738D01*
X0043002Y0250428D01*
X0043155Y0250067D01*
X0043193Y0249550D01*
X0043155Y0249033D01*
X0043002Y0248672D01*
X0042810Y0248362D01*
X0042580Y0248155D01*
X0042273Y0248000D01*
X0041507D01*
G01X0291500Y0246500D02*
Y0253500D01*
X0044000D01*
Y0246500D01*
X0291500D01*
G01X0035383Y0258000D02*
Y0261100D01*
X0036303D01*
X0036610Y0260945D01*
X0036840Y0260583D01*
X0036917Y0260170D01*
X0036840Y0259757D01*
X0036648Y0259447D01*
X0036303Y0259292D01*
X0035383D01*
G01X0039250Y0258000D02*
X0038943Y0258052D01*
X0038675Y0258258D01*
X0038445Y0258568D01*
X0038292Y0258930D01*
X0038215Y0259343D01*
Y0259757D01*
X0038292Y0260170D01*
X0038445Y0260532D01*
X0038675Y0260842D01*
X0038943Y0261048D01*
X0039250Y0261100D01*
X0039557Y0261048D01*
X0039825Y0260842D01*
X0040055Y0260532D01*
X0040208Y0260170D01*
X0040285Y0259757D01*
Y0259343D01*
X0040208Y0258930D01*
X0040055Y0258568D01*
X0039825Y0258258D01*
X0039557Y0258052D01*
X0039250Y0258000D01*
G01X0041545Y0258413D02*
X0041852Y0258155D01*
X0042197Y0258000D01*
X0042503D01*
X0042810Y0258155D01*
X0043040Y0258413D01*
X0043155Y0258775D01*
X0043078Y0259137D01*
X0042887Y0259447D01*
X0042542Y0259653D01*
X0042082Y0259757D01*
X0041813Y0259963D01*
X0041698Y0260325D01*
X0041775Y0260687D01*
X0041967Y0260945D01*
X0042235Y0261100D01*
X0042503D01*
X0042772Y0260997D01*
X0043002Y0260738D01*
G01X0036380Y0269550D02*
X0037147D01*
Y0268620D01*
X0036917Y0268310D01*
X0036648Y0268103D01*
X0036265Y0268000D01*
X0035882Y0268103D01*
X0035613Y0268310D01*
X0035383Y0268620D01*
X0035230Y0268982D01*
X0035153Y0269395D01*
Y0269757D01*
X0035230Y0270067D01*
X0035383Y0270428D01*
X0035613Y0270738D01*
X0035843Y0270945D01*
X0036150Y0271100D01*
X0036418D01*
X0036725Y0270997D01*
X0036955Y0270790D01*
G01X0038368Y0268000D02*
Y0271100D01*
X0040132Y0268000D01*
Y0271100D01*
G01X0041507Y0268000D02*
Y0271100D01*
X0042273D01*
X0042580Y0270945D01*
X0042810Y0270738D01*
X0043002Y0270428D01*
X0043155Y0270067D01*
X0043193Y0269550D01*
X0043155Y0269033D01*
X0043002Y0268672D01*
X0042810Y0268362D01*
X0042580Y0268155D01*
X0042273Y0268000D01*
X0041507D01*
G01X0291500Y0263500D02*
Y0256500D01*
X0044000D01*
Y0263500D01*
X0291500D01*
G01X0044500Y0273500D02*
Y0266500D01*
X0121000D01*
Y0273500D01*
X0044500D01*
G01X0036650Y0346000D02*
Y0349100D01*
X0036190Y0348480D01*
G01Y0346000D02*
X0037110D01*
G01X0038907Y0346465D02*
X0039137Y0346207D01*
X0039405Y0346052D01*
X0039750Y0346000D01*
X0040095Y0346103D01*
X0040363Y0346310D01*
X0040555Y0346672D01*
X0040593Y0347085D01*
X0040517Y0347498D01*
X0040325Y0347757D01*
X0040057Y0347963D01*
X0039788Y0348015D01*
X0039520Y0347963D01*
X0039175Y0347757D01*
X0039290Y0349100D01*
X0040325D01*
G01X0036650Y0336500D02*
Y0339600D01*
X0036190Y0338980D01*
G01Y0336500D02*
X0037110D01*
G01X0039022Y0337792D02*
X0039290Y0338153D01*
X0039520Y0338360D01*
X0039827Y0338463D01*
X0040095Y0338360D01*
X0040287Y0338153D01*
X0040440Y0337843D01*
X0040478Y0337482D01*
X0040440Y0337172D01*
X0040287Y0336862D01*
X0040057Y0336603D01*
X0039788Y0336500D01*
X0039482Y0336603D01*
X0039213Y0336913D01*
X0039060Y0337378D01*
X0039022Y0337895D01*
X0039098Y0338567D01*
X0039213Y0338928D01*
X0039405Y0339290D01*
X0039673Y0339548D01*
X0039942Y0339600D01*
X0040210Y0339497D01*
X0040402Y0339238D01*
G01X0050373Y0357000D02*
Y0364500D01*
X0052800Y0358250D01*
X0055227Y0364500D01*
Y0357000D01*
G01X0058433Y0364500D02*
Y0357000D01*
X0062167D01*
G01X0066027Y0360125D02*
X0066680Y0361000D01*
X0067240Y0361500D01*
X0067987Y0361750D01*
X0068640Y0361500D01*
X0069107Y0361000D01*
X0069480Y0360250D01*
X0069573Y0359375D01*
X0069480Y0358625D01*
X0069107Y0357875D01*
X0068547Y0357250D01*
X0067893Y0357000D01*
X0067147Y0357250D01*
X0066493Y0358000D01*
X0066120Y0359125D01*
X0066027Y0360375D01*
X0066213Y0362000D01*
X0066493Y0362875D01*
X0066960Y0363750D01*
X0067613Y0364375D01*
X0068267Y0364500D01*
X0068920Y0364250D01*
X0069387Y0363625D01*
G01X0075300Y0357000D02*
Y0364500D01*
X0074180Y0363000D01*
G01Y0357000D02*
X0076420D01*
G01X0082800Y0364500D02*
X0082053Y0364250D01*
X0081493Y0363625D01*
X0081120Y0362875D01*
X0080840Y0361875D01*
X0080747Y0360750D01*
X0080840Y0359625D01*
X0081120Y0358625D01*
X0081493Y0357875D01*
X0082053Y0357250D01*
X0082800Y0357000D01*
X0083547Y0357250D01*
X0084107Y0357875D01*
X0084480Y0358625D01*
X0084760Y0359625D01*
X0084853Y0360750D01*
X0084760Y0361875D01*
X0084480Y0362875D01*
X0084107Y0363625D01*
X0083547Y0364250D01*
X0082800Y0364500D01*
G01X0090300Y0357000D02*
X0089553Y0357125D01*
X0088900Y0357625D01*
X0088340Y0358375D01*
X0087967Y0359250D01*
X0087780Y0360250D01*
Y0361250D01*
X0087967Y0362250D01*
X0088340Y0363125D01*
X0088900Y0363875D01*
X0089553Y0364375D01*
X0090300Y0364500D01*
X0091047Y0364375D01*
X0091700Y0363875D01*
X0092260Y0363125D01*
X0092633Y0362250D01*
X0092820Y0361250D01*
Y0360250D01*
X0092633Y0359250D01*
X0092260Y0358375D01*
X0091700Y0357625D01*
X0091047Y0357125D01*
X0090300Y0357000D01*
G01X0091047Y0359000D02*
X0092167Y0357000D01*
G01X0097800D02*
Y0364500D01*
X0096680Y0363000D01*
G01Y0357000D02*
X0098920D01*
G01X0105300D02*
Y0364500D01*
X0104180Y0363000D01*
G01Y0357000D02*
X0106420D01*
G01X0112800D02*
Y0364500D01*
X0111680Y0363000D01*
G01Y0357000D02*
X0113920D01*
G01X0044633Y0399500D02*
Y0404500D01*
X0046217D01*
X0046723Y0404250D01*
X0047040Y0403917D01*
X0047167Y0403250D01*
X0047040Y0402583D01*
X0046660Y0402167D01*
X0046217Y0401917D01*
X0044633D01*
G01X0046217D02*
X0047167Y0399500D01*
G01X0051000D02*
Y0404500D01*
X0050240Y0403500D01*
G01Y0399500D02*
X0051760D01*
G01X0056860D02*
Y0404500D01*
X0054517Y0400917D01*
X0057683D01*
G01X0042183Y0412500D02*
Y0417500D01*
X0043767D01*
X0044273Y0417250D01*
X0044590Y0416917D01*
X0044717Y0416250D01*
X0044590Y0415583D01*
X0044210Y0415167D01*
X0043767Y0414917D01*
X0042183D01*
G01X0043767D02*
X0044717Y0412500D01*
G01X0047473Y0413083D02*
X0047917Y0412667D01*
X0048423Y0412500D01*
X0048930Y0412667D01*
X0049373Y0413167D01*
X0049690Y0413917D01*
X0049817Y0414667D01*
Y0415583D01*
X0049690Y0416333D01*
X0049373Y0417000D01*
X0048993Y0417333D01*
X0048550Y0417500D01*
X0048043Y0417333D01*
X0047663Y0417000D01*
X0047410Y0416500D01*
X0047283Y0415833D01*
X0047410Y0415250D01*
X0047727Y0414667D01*
X0048107Y0414333D01*
X0048550Y0414250D01*
X0049057Y0414417D01*
X0049437Y0414833D01*
X0049817Y0415583D01*
G01X0048633Y0423000D02*
Y0428000D01*
X0050217D01*
X0050723Y0427750D01*
X0051040Y0427417D01*
X0051167Y0426750D01*
X0051040Y0426083D01*
X0050660Y0425667D01*
X0050217Y0425417D01*
X0048633D01*
G01X0050217D02*
X0051167Y0423000D01*
G01X0055000D02*
Y0428000D01*
X0054240Y0427000D01*
G01Y0423000D02*
X0055760D01*
G01X0060100Y0428000D02*
X0059593Y0427833D01*
X0059213Y0427417D01*
X0058960Y0426917D01*
X0058770Y0426250D01*
X0058707Y0425500D01*
X0058770Y0424750D01*
X0058960Y0424083D01*
X0059213Y0423583D01*
X0059593Y0423167D01*
X0060100Y0423000D01*
X0060607Y0423167D01*
X0060987Y0423583D01*
X0061240Y0424083D01*
X0061430Y0424750D01*
X0061493Y0425500D01*
X0061430Y0426250D01*
X0061240Y0426917D01*
X0060987Y0427417D01*
X0060607Y0427833D01*
X0060100Y0428000D01*
G01X0041633Y0432500D02*
Y0437500D01*
X0043217D01*
X0043723Y0437250D01*
X0044040Y0436917D01*
X0044167Y0436250D01*
X0044040Y0435583D01*
X0043660Y0435167D01*
X0043217Y0434917D01*
X0041633D01*
G01X0043217D02*
X0044167Y0432500D01*
G01X0048000D02*
Y0437500D01*
X0047240Y0436500D01*
G01Y0432500D02*
X0048760D01*
G01X0051707Y0433250D02*
X0052087Y0432833D01*
X0052530Y0432583D01*
X0053100Y0432500D01*
X0053670Y0432667D01*
X0054113Y0433000D01*
X0054430Y0433583D01*
X0054493Y0434250D01*
X0054367Y0434917D01*
X0054050Y0435333D01*
X0053607Y0435667D01*
X0053163Y0435750D01*
X0052720Y0435667D01*
X0052150Y0435333D01*
X0052340Y0437500D01*
X0054050D01*
G01X0084000Y0013800D02*
X0083875Y0013053D01*
X0083375Y0012400D01*
X0082625Y0011840D01*
X0081750Y0011467D01*
X0080750Y0011280D01*
X0079750D01*
X0078750Y0011467D01*
X0077875Y0011840D01*
X0077125Y0012400D01*
X0076625Y0013053D01*
X0076500Y0013800D01*
X0076625Y0014547D01*
X0077125Y0015200D01*
X0077875Y0015760D01*
X0078750Y0016133D01*
X0079750Y0016320D01*
X0080750D01*
X0081750Y0016133D01*
X0082625Y0015760D01*
X0083375Y0015200D01*
X0083875Y0014547D01*
X0084000Y0013800D01*
G01X0082000Y0014547D02*
X0084000Y0015667D01*
G01Y0021300D02*
X0076500D01*
X0078000Y0020180D01*
G01X0084000D02*
Y0022420D01*
G01Y0028800D02*
X0076500D01*
X0078000Y0027680D01*
G01X0084000D02*
Y0029920D01*
G01Y0036300D02*
X0076500D01*
X0078000Y0035180D01*
G01X0084000D02*
Y0037420D01*
G01X0074000Y0071000D02*
Y0001000D01*
X0136000D01*
Y0071000D01*
X0074000D01*
G01X0075840Y0052000D02*
X0076587Y0051375D01*
X0077427Y0051000D01*
X0078173D01*
X0078920Y0051375D01*
X0079480Y0052000D01*
X0079760Y0052875D01*
X0079573Y0053750D01*
X0079107Y0054500D01*
X0078267Y0055000D01*
X0077147Y0055250D01*
X0076493Y0055750D01*
X0076213Y0056625D01*
X0076400Y0057500D01*
X0076867Y0058125D01*
X0077520Y0058500D01*
X0078173D01*
X0078827Y0058250D01*
X0079387Y0057625D01*
G01X0083900Y0054375D02*
X0086887D01*
X0086607Y0055250D01*
X0086140Y0055750D01*
X0085487Y0056000D01*
X0084833Y0055875D01*
X0084273Y0055500D01*
X0083900Y0054625D01*
X0083713Y0053875D01*
Y0053125D01*
X0083900Y0052375D01*
X0084367Y0051625D01*
X0084927Y0051125D01*
X0085580Y0051000D01*
X0086233Y0051250D01*
X0086887Y0052000D01*
G01X0092800Y0051000D02*
Y0058500D01*
G01X0098900Y0054375D02*
X0101887D01*
X0101607Y0055250D01*
X0101140Y0055750D01*
X0100487Y0056000D01*
X0099833Y0055875D01*
X0099273Y0055500D01*
X0098900Y0054625D01*
X0098713Y0053875D01*
Y0053125D01*
X0098900Y0052375D01*
X0099367Y0051625D01*
X0099927Y0051125D01*
X0100580Y0051000D01*
X0101233Y0051250D01*
X0101887Y0052000D01*
G01X0109293Y0055375D02*
X0108640Y0055875D01*
X0108080Y0056000D01*
X0107333Y0055750D01*
X0106773Y0055250D01*
X0106400Y0054375D01*
X0106307Y0053500D01*
X0106400Y0052625D01*
X0106773Y0051875D01*
X0107333Y0051250D01*
X0108080Y0051000D01*
X0108733Y0051250D01*
X0109293Y0051750D01*
G01X0115300Y0058500D02*
Y0051000D01*
G01X0113993Y0056000D02*
X0116607D01*
G01X0122800Y0051000D02*
X0122240Y0051125D01*
X0121680Y0051625D01*
X0121307Y0052500D01*
X0121120Y0053500D01*
X0121307Y0054500D01*
X0121680Y0055375D01*
X0122240Y0055875D01*
X0122800Y0056000D01*
X0123360Y0055875D01*
X0123920Y0055375D01*
X0124293Y0054500D01*
X0124387Y0053500D01*
X0124293Y0052500D01*
X0123920Y0051625D01*
X0123360Y0051125D01*
X0122800Y0051000D01*
G01X0128993D02*
Y0056000D01*
G01Y0055000D02*
X0129460Y0055500D01*
X0129927Y0055875D01*
X0130580Y0056000D01*
X0131047Y0055875D01*
X0131607Y0055500D01*
G01X0062057Y0069000D02*
Y0065417D01*
X0062310Y0064667D01*
X0062817Y0064167D01*
X0063450Y0064000D01*
X0064083Y0064167D01*
X0064590Y0064667D01*
X0064843Y0065417D01*
Y0069000D01*
G01X0069310Y0064000D02*
Y0069000D01*
X0066967Y0065417D01*
X0070133D01*
G01X0079250Y0089833D02*
X0079750Y0090333D01*
X0080125Y0091166D01*
X0080375Y0092333D01*
X0080125Y0093333D01*
X0079625Y0094000D01*
X0078750Y0094500D01*
X0075375D01*
Y0084500D01*
X0079500D01*
X0080375Y0085167D01*
X0080875Y0086167D01*
X0081125Y0087333D01*
X0080875Y0088500D01*
X0080125Y0089500D01*
X0079250Y0089833D01*
X0075375D01*
G01X0088250Y0084500D02*
X0087250Y0084667D01*
X0086375Y0085333D01*
X0085625Y0086333D01*
X0085125Y0087500D01*
X0084875Y0088833D01*
Y0090167D01*
X0085125Y0091500D01*
X0085625Y0092667D01*
X0086375Y0093667D01*
X0087250Y0094333D01*
X0088250Y0094500D01*
X0089250Y0094333D01*
X0090125Y0093667D01*
X0090875Y0092667D01*
X0091375Y0091500D01*
X0091625Y0090167D01*
Y0088833D01*
X0091375Y0087500D01*
X0090875Y0086333D01*
X0090125Y0085333D01*
X0089250Y0084667D01*
X0088250Y0084500D01*
G01X0095125D02*
X0098250Y0094500D01*
X0101375Y0084500D01*
G01X0100250Y0088000D02*
X0096250D01*
G01X0105750Y0084500D02*
Y0094500D01*
X0108875D01*
X0109875Y0094000D01*
X0110500Y0093333D01*
X0110750Y0092000D01*
X0110500Y0090667D01*
X0109750Y0089833D01*
X0108875Y0089333D01*
X0105750D01*
G01X0108875D02*
X0110750Y0084500D01*
G01X0115500D02*
Y0094500D01*
X0118000D01*
X0119000Y0094000D01*
X0119750Y0093333D01*
X0120375Y0092333D01*
X0120875Y0091166D01*
X0121000Y0089500D01*
X0120875Y0087833D01*
X0120375Y0086667D01*
X0119750Y0085666D01*
X0119000Y0085000D01*
X0118000Y0084500D01*
X0115500D01*
G01X0075500Y0099500D02*
Y0109500D01*
X0078000D01*
X0079000Y0109000D01*
X0079750Y0108333D01*
X0080375Y0107333D01*
X0080875Y0106166D01*
X0081000Y0104500D01*
X0080875Y0102833D01*
X0080375Y0101667D01*
X0079750Y0100666D01*
X0079000Y0100000D01*
X0078000Y0099500D01*
X0075500D01*
G01X0090750D02*
X0085750D01*
Y0109500D01*
X0090750D01*
G01X0088750Y0104667D02*
X0085750D01*
G01X0095125Y0109500D02*
X0098250Y0099500D01*
X0101375Y0109500D01*
G01X0075750Y0127000D02*
Y0117000D01*
X0080750D01*
G01X0090500D02*
Y0123666D01*
G01Y0122500D02*
X0090000Y0123167D01*
X0089250Y0123500D01*
X0088375Y0123666D01*
X0087500Y0123333D01*
X0086750Y0122667D01*
X0086250Y0121667D01*
X0086000Y0120333D01*
X0086250Y0119000D01*
X0086750Y0118000D01*
X0087500Y0117333D01*
X0088375Y0117000D01*
X0089250Y0117167D01*
X0090000Y0117667D01*
X0090500Y0118333D01*
G01X0095750Y0117000D02*
Y0127000D01*
X0098750D01*
X0099750Y0126500D01*
X0100500Y0125333D01*
X0100750Y0124000D01*
X0100500Y0122667D01*
X0099875Y0121667D01*
X0098750Y0121166D01*
X0095750D01*
G01X0108250Y0123666D02*
Y0117000D01*
G01Y0126333D02*
X0108000Y0126500D01*
Y0126833D01*
X0108250Y0127000D01*
X0108500Y0126833D01*
Y0126500D01*
X0108250Y0126333D01*
G01X0065000Y0181000D02*
Y0135000D01*
X0279000D01*
Y0181000D01*
X0065000D01*
G01X0067507Y0176000D02*
X0067887Y0175417D01*
X0068393Y0175083D01*
X0068963Y0175000D01*
X0069470Y0175083D01*
X0069977Y0175500D01*
X0070293Y0176000D01*
X0070357Y0176500D01*
X0070230Y0177083D01*
X0069787Y0177500D01*
X0069343Y0177667D01*
X0068773D01*
G01X0069343D02*
X0069723Y0177917D01*
X0070040Y0178333D01*
X0070167Y0178833D01*
X0070040Y0179333D01*
X0069723Y0179750D01*
X0069153Y0180000D01*
X0068583Y0179917D01*
X0068013Y0179583D01*
G01X0074000Y0174833D02*
X0073873Y0174917D01*
Y0175083D01*
X0074000Y0175167D01*
X0074127Y0175083D01*
Y0174917D01*
X0074000Y0174833D01*
G01X0077707Y0176000D02*
X0078087Y0175417D01*
X0078593Y0175083D01*
X0079163Y0175000D01*
X0079670Y0175083D01*
X0080177Y0175500D01*
X0080493Y0176000D01*
X0080557Y0176500D01*
X0080430Y0177083D01*
X0079987Y0177500D01*
X0079543Y0177667D01*
X0078973D01*
G01X0079543D02*
X0079923Y0177917D01*
X0080240Y0178333D01*
X0080367Y0178833D01*
X0080240Y0179333D01*
X0079923Y0179750D01*
X0079353Y0180000D01*
X0078783Y0179917D01*
X0078213Y0179583D01*
G01X0082617Y0180000D02*
X0084200Y0175000D01*
X0085783Y0180000D01*
G01X0093133Y0175000D02*
Y0180000D01*
X0094653D01*
X0095160Y0179750D01*
X0095540Y0179167D01*
X0095667Y0178500D01*
X0095540Y0177833D01*
X0095223Y0177333D01*
X0094653Y0177083D01*
X0093133D01*
G01X0097917Y0178333D02*
X0098677Y0175000D01*
X0099500Y0178333D01*
X0100323Y0175000D01*
X0101083Y0178333D01*
G01X0103713Y0175000D02*
Y0178333D01*
G01Y0177667D02*
X0104030Y0178000D01*
X0104347Y0178250D01*
X0104790Y0178333D01*
X0105107Y0178250D01*
X0105487Y0178000D01*
G01X0109700Y0174833D02*
X0109573Y0174917D01*
Y0175083D01*
X0109700Y0175167D01*
X0109827Y0175083D01*
Y0174917D01*
X0109700Y0174833D01*
G01X0085007Y0378000D02*
Y0374417D01*
X0085260Y0373667D01*
X0085767Y0373167D01*
X0086400Y0373000D01*
X0087033Y0373167D01*
X0087540Y0373667D01*
X0087793Y0374417D01*
Y0378000D01*
G01X0090297Y0377167D02*
X0090677Y0377667D01*
X0091120Y0377917D01*
X0091627Y0378000D01*
X0092260Y0377833D01*
X0092703Y0377417D01*
X0092830Y0376917D01*
X0092767Y0376417D01*
X0092513Y0376000D01*
X0091247Y0375167D01*
X0090677Y0374583D01*
X0090297Y0373750D01*
X0090170Y0373000D01*
X0092830D01*
G01X0072650Y0405500D02*
Y0408600D01*
X0072190Y0407980D01*
G01Y0405500D02*
X0073110D01*
G01X0085900Y0407500D02*
X0085393Y0407583D01*
X0084950Y0407917D01*
X0084570Y0408417D01*
X0084317Y0409000D01*
X0084190Y0409667D01*
Y0410333D01*
X0084317Y0411000D01*
X0084570Y0411583D01*
X0084950Y0412083D01*
X0085393Y0412417D01*
X0085900Y0412500D01*
X0086407Y0412417D01*
X0086850Y0412083D01*
X0087230Y0411583D01*
X0087483Y0411000D01*
X0087610Y0410333D01*
Y0409667D01*
X0087483Y0409000D01*
X0087230Y0408417D01*
X0086850Y0407917D01*
X0086407Y0407583D01*
X0085900Y0407500D01*
G01X0086407Y0408833D02*
X0087167Y0407500D01*
G01X0091000D02*
Y0412500D01*
X0090240Y0411500D01*
G01Y0407500D02*
X0091760D01*
G01X0096100D02*
Y0412500D01*
X0095340Y0411500D01*
G01Y0407500D02*
X0096860D01*
G01X0101200D02*
Y0412500D01*
X0100440Y0411500D01*
G01Y0407500D02*
X0101960D01*
G01X0072183Y0436500D02*
X0072500Y0436000D01*
X0072880Y0435667D01*
X0073323Y0435500D01*
X0073830Y0435667D01*
X0074210Y0436000D01*
X0074590Y0436500D01*
X0074717Y0437167D01*
Y0440500D01*
G01X0077473Y0436083D02*
X0077917Y0435667D01*
X0078423Y0435500D01*
X0078930Y0435667D01*
X0079373Y0436167D01*
X0079690Y0436917D01*
X0079817Y0437667D01*
Y0438583D01*
X0079690Y0439333D01*
X0079373Y0440000D01*
X0078993Y0440333D01*
X0078550Y0440500D01*
X0078043Y0440333D01*
X0077663Y0440000D01*
X0077410Y0439500D01*
X0077283Y0438833D01*
X0077410Y0438250D01*
X0077727Y0437667D01*
X0078107Y0437333D01*
X0078550Y0437250D01*
X0079057Y0437417D01*
X0079437Y0437833D01*
X0079817Y0438583D01*
G01X0097633Y0006000D02*
X0097950Y0005500D01*
X0098330Y0005167D01*
X0098773Y0005000D01*
X0099280Y0005167D01*
X0099660Y0005500D01*
X0100040Y0006000D01*
X0100167Y0006667D01*
Y0010000D01*
G01X0104000Y0005000D02*
Y0010000D01*
X0103240Y0009000D01*
G01Y0005000D02*
X0104760D01*
G01X0107897Y0009167D02*
X0108277Y0009667D01*
X0108720Y0009917D01*
X0109227Y0010000D01*
X0109860Y0009833D01*
X0110303Y0009417D01*
X0110430Y0008917D01*
X0110367Y0008417D01*
X0110113Y0008000D01*
X0108847Y0007167D01*
X0108277Y0006583D01*
X0107897Y0005750D01*
X0107770Y0005000D01*
X0110430D01*
G01X0097633Y0042000D02*
X0097950Y0041500D01*
X0098330Y0041167D01*
X0098773Y0041000D01*
X0099280Y0041167D01*
X0099660Y0041500D01*
X0100040Y0042000D01*
X0100167Y0042667D01*
Y0046000D01*
G01X0104000Y0041000D02*
Y0046000D01*
X0103240Y0045000D01*
G01Y0041000D02*
X0104760D01*
G01X0107707Y0042000D02*
X0108087Y0041417D01*
X0108593Y0041083D01*
X0109163Y0041000D01*
X0109670Y0041083D01*
X0110177Y0041500D01*
X0110493Y0042000D01*
X0110557Y0042500D01*
X0110430Y0043083D01*
X0109987Y0043500D01*
X0109543Y0043667D01*
X0108973D01*
G01X0109543D02*
X0109923Y0043917D01*
X0110240Y0044333D01*
X0110367Y0044833D01*
X0110240Y0045333D01*
X0109923Y0045750D01*
X0109353Y0046000D01*
X0108783Y0045917D01*
X0108213Y0045583D01*
G01X0096853Y0068875D02*
X0096293Y0069250D01*
X0095640Y0069500D01*
X0094893D01*
X0094053Y0069125D01*
X0093400Y0068500D01*
X0092933Y0067750D01*
X0092560Y0066500D01*
X0092467Y0065375D01*
X0092653Y0064250D01*
X0092933Y0063500D01*
X0093493Y0062750D01*
X0094147Y0062250D01*
X0094800Y0062000D01*
X0095453D01*
X0096107Y0062250D01*
X0096667Y0062625D01*
X0097133Y0063125D01*
G01X0102300Y0062000D02*
X0101740Y0062125D01*
X0101180Y0062625D01*
X0100807Y0063500D01*
X0100620Y0064500D01*
X0100807Y0065500D01*
X0101180Y0066375D01*
X0101740Y0066875D01*
X0102300Y0067000D01*
X0102860Y0066875D01*
X0103420Y0066375D01*
X0103793Y0065500D01*
X0103887Y0064500D01*
X0103793Y0063500D01*
X0103420Y0062625D01*
X0102860Y0062125D01*
X0102300Y0062000D01*
G01X0107000D02*
Y0067000D01*
G01Y0065625D02*
X0107280Y0066250D01*
X0107747Y0066750D01*
X0108400Y0067000D01*
X0109053Y0066750D01*
X0109520Y0066250D01*
X0109800Y0065625D01*
Y0062000D01*
G01Y0065625D02*
X0110080Y0066250D01*
X0110547Y0066750D01*
X0111200Y0067000D01*
X0111853Y0066750D01*
X0112320Y0066250D01*
X0112600Y0065500D01*
Y0062000D01*
G01X0114500D02*
Y0067000D01*
G01Y0065625D02*
X0114780Y0066250D01*
X0115247Y0066750D01*
X0115900Y0067000D01*
X0116553Y0066750D01*
X0117020Y0066250D01*
X0117300Y0065625D01*
Y0062000D01*
G01Y0065625D02*
X0117580Y0066250D01*
X0118047Y0066750D01*
X0118700Y0067000D01*
X0119353Y0066750D01*
X0119820Y0066250D01*
X0120100Y0065500D01*
Y0062000D01*
G01X0118000Y0160683D02*
X0113000D01*
Y0162267D01*
X0113250Y0162773D01*
X0113583Y0163090D01*
X0114250Y0163217D01*
X0114917Y0163090D01*
X0115333Y0162710D01*
X0115583Y0162267D01*
Y0160683D01*
G01Y0162267D02*
X0118000Y0163217D01*
G01Y0166923D02*
X0116917Y0167050D01*
X0116000Y0167240D01*
X0115167Y0167493D01*
X0114250Y0167810D01*
X0113000Y0168317D01*
Y0165783D01*
G01X0112917Y0375843D02*
X0112667Y0375463D01*
X0112500Y0375020D01*
Y0374513D01*
X0112750Y0373943D01*
X0113167Y0373500D01*
X0113667Y0373183D01*
X0114500Y0372930D01*
X0115250Y0372867D01*
X0116000Y0372993D01*
X0116500Y0373183D01*
X0117000Y0373563D01*
X0117333Y0374007D01*
X0117500Y0374450D01*
Y0374893D01*
X0117333Y0375337D01*
X0117083Y0375717D01*
X0116750Y0376033D01*
G01X0115417Y0378347D02*
X0114833Y0378790D01*
X0114500Y0379170D01*
X0114333Y0379677D01*
X0114500Y0380120D01*
X0114833Y0380437D01*
X0115333Y0380690D01*
X0115917Y0380753D01*
X0116417Y0380690D01*
X0116917Y0380437D01*
X0117333Y0380057D01*
X0117500Y0379613D01*
X0117333Y0379107D01*
X0116833Y0378663D01*
X0116083Y0378410D01*
X0115250Y0378347D01*
X0114167Y0378473D01*
X0113583Y0378663D01*
X0113000Y0378980D01*
X0112583Y0379423D01*
X0112500Y0379867D01*
X0112667Y0380310D01*
X0113083Y0380627D01*
G01X0116183Y0407000D02*
Y0412000D01*
X0117767D01*
X0118273Y0411750D01*
X0118590Y0411417D01*
X0118717Y0410750D01*
X0118590Y0410083D01*
X0118210Y0409667D01*
X0117767Y0409417D01*
X0116183D01*
G01X0117767D02*
X0118717Y0407000D01*
G01X0121347Y0411167D02*
X0121727Y0411667D01*
X0122170Y0411917D01*
X0122677Y0412000D01*
X0123310Y0411833D01*
X0123753Y0411417D01*
X0123880Y0410917D01*
X0123817Y0410417D01*
X0123563Y0410000D01*
X0122297Y0409167D01*
X0121727Y0408583D01*
X0121347Y0407750D01*
X0121220Y0407000D01*
X0123880D01*
G01X0133000Y0013800D02*
X0132875Y0013053D01*
X0132375Y0012400D01*
X0131625Y0011840D01*
X0130750Y0011467D01*
X0129750Y0011280D01*
X0128750D01*
X0127750Y0011467D01*
X0126875Y0011840D01*
X0126125Y0012400D01*
X0125625Y0013053D01*
X0125500Y0013800D01*
X0125625Y0014547D01*
X0126125Y0015200D01*
X0126875Y0015760D01*
X0127750Y0016133D01*
X0128750Y0016320D01*
X0129750D01*
X0130750Y0016133D01*
X0131625Y0015760D01*
X0132375Y0015200D01*
X0132875Y0014547D01*
X0133000Y0013800D01*
G01X0131000Y0014547D02*
X0133000Y0015667D01*
G01Y0021300D02*
X0125500D01*
X0127000Y0020180D01*
G01X0133000D02*
Y0022420D01*
G01Y0028800D02*
X0125500D01*
X0127000Y0027680D01*
G01X0133000D02*
Y0029920D01*
G01X0126750Y0034527D02*
X0126000Y0035087D01*
X0125625Y0035740D01*
X0125500Y0036487D01*
X0125750Y0037420D01*
X0126375Y0038073D01*
X0127125Y0038260D01*
X0127875Y0038167D01*
X0128500Y0037793D01*
X0129750Y0035927D01*
X0130625Y0035087D01*
X0131875Y0034527D01*
X0133000Y0034340D01*
Y0038260D01*
G01X0140783Y0004000D02*
Y0010300D01*
X0142742D01*
X0143368Y0009985D01*
X0143760Y0009565D01*
X0143917Y0008725D01*
X0143760Y0007885D01*
X0143290Y0007360D01*
X0142742Y0007045D01*
X0140783D01*
G01X0142742D02*
X0143917Y0004000D01*
G01X0148650D02*
X0148023Y0004105D01*
X0147475Y0004525D01*
X0147005Y0005155D01*
X0146692Y0005890D01*
X0146535Y0006730D01*
Y0007570D01*
X0146692Y0008410D01*
X0147005Y0009145D01*
X0147475Y0009775D01*
X0148023Y0010195D01*
X0148650Y0010300D01*
X0149277Y0010195D01*
X0149825Y0009775D01*
X0150295Y0009145D01*
X0150608Y0008410D01*
X0150765Y0007570D01*
Y0006730D01*
X0150608Y0005890D01*
X0150295Y0005155D01*
X0149825Y0004525D01*
X0149277Y0004105D01*
X0148650Y0004000D01*
G01X0153305D02*
Y0010300D01*
G01X0156595D02*
Y0004000D01*
G01Y0007150D02*
X0153305D01*
G01X0159213Y0004000D02*
Y0010300D01*
X0161250Y0005050D01*
X0163287Y0010300D01*
Y0004000D01*
G01X0172127Y0010300D02*
Y0005785D01*
X0172440Y0004840D01*
X0173067Y0004210D01*
X0173850Y0004000D01*
X0174633Y0004210D01*
X0175260Y0004840D01*
X0175573Y0005785D01*
Y0010300D01*
G01X0178505Y0004840D02*
X0179132Y0004315D01*
X0179837Y0004000D01*
X0180463D01*
X0181090Y0004315D01*
X0181560Y0004840D01*
X0181795Y0005575D01*
X0181638Y0006310D01*
X0181247Y0006940D01*
X0180542Y0007360D01*
X0179602Y0007570D01*
X0179053Y0007990D01*
X0178818Y0008725D01*
X0178975Y0009460D01*
X0179367Y0009985D01*
X0179915Y0010300D01*
X0180463D01*
X0181012Y0010090D01*
X0181482Y0009565D01*
G01X0184727Y0004000D02*
Y0010300D01*
X0186293D01*
X0186920Y0009985D01*
X0187390Y0009565D01*
X0187782Y0008935D01*
X0188095Y0008200D01*
X0188173Y0007150D01*
X0188095Y0006100D01*
X0187782Y0005365D01*
X0187390Y0004735D01*
X0186920Y0004315D01*
X0186293Y0004000D01*
X0184727D01*
G01X0194473Y0009775D02*
X0194003Y0010090D01*
X0193455Y0010300D01*
X0192828D01*
X0192123Y0009985D01*
X0191575Y0009460D01*
X0191183Y0008830D01*
X0190870Y0007780D01*
X0190792Y0006835D01*
X0190948Y0005890D01*
X0191183Y0005260D01*
X0191653Y0004630D01*
X0192202Y0004210D01*
X0192750Y0004000D01*
X0193298D01*
X0193847Y0004210D01*
X0194317Y0004525D01*
X0194708Y0004945D01*
G01X0138127Y0031000D02*
Y0037300D01*
X0139693D01*
X0140320Y0036985D01*
X0140790Y0036565D01*
X0141182Y0035935D01*
X0141495Y0035200D01*
X0141573Y0034150D01*
X0141495Y0033100D01*
X0141182Y0032365D01*
X0140790Y0031735D01*
X0140320Y0031315D01*
X0139693Y0031000D01*
X0138127D01*
G01X0147717D02*
X0144583D01*
Y0037300D01*
X0147717D01*
G01X0146463Y0034255D02*
X0144583D01*
G01X0150492Y0037300D02*
X0152450Y0031000D01*
X0154408Y0037300D01*
G01X0160317Y0031000D02*
X0157183D01*
Y0037300D01*
X0160317D01*
G01X0159063Y0034255D02*
X0157183D01*
G01X0163483Y0037300D02*
Y0031000D01*
X0166617D01*
G01X0171350D02*
X0170723Y0031105D01*
X0170175Y0031525D01*
X0169705Y0032155D01*
X0169392Y0032890D01*
X0169235Y0033730D01*
Y0034570D01*
X0169392Y0035410D01*
X0169705Y0036145D01*
X0170175Y0036775D01*
X0170723Y0037195D01*
X0171350Y0037300D01*
X0171977Y0037195D01*
X0172525Y0036775D01*
X0172995Y0036145D01*
X0173308Y0035410D01*
X0173465Y0034570D01*
Y0033730D01*
X0173308Y0032890D01*
X0172995Y0032155D01*
X0172525Y0031525D01*
X0171977Y0031105D01*
X0171350Y0031000D01*
G01X0176083D02*
Y0037300D01*
X0177963D01*
X0178590Y0036985D01*
X0179060Y0036250D01*
X0179217Y0035410D01*
X0179060Y0034570D01*
X0178668Y0033940D01*
X0177963Y0033625D01*
X0176083D01*
G01X0181913Y0031000D02*
Y0037300D01*
X0183950Y0032050D01*
X0185987Y0037300D01*
Y0031000D01*
G01X0191817D02*
X0188683D01*
Y0037300D01*
X0191817D01*
G01X0190563Y0034255D02*
X0188683D01*
G01X0194748Y0031000D02*
Y0037300D01*
X0198352Y0031000D01*
Y0037300D01*
G01X0202850D02*
Y0031000D01*
G01X0201048Y0037300D02*
X0204652D01*
G01X0132417Y0076843D02*
X0132167Y0076463D01*
X0132000Y0076020D01*
Y0075513D01*
X0132250Y0074943D01*
X0132667Y0074500D01*
X0133167Y0074183D01*
X0134000Y0073930D01*
X0134750Y0073867D01*
X0135500Y0073993D01*
X0136000Y0074183D01*
X0136500Y0074563D01*
X0136833Y0075007D01*
X0137000Y0075450D01*
Y0075893D01*
X0136833Y0076337D01*
X0136583Y0076717D01*
X0136250Y0077033D01*
G01Y0079157D02*
X0136667Y0079537D01*
X0136917Y0079980D01*
X0137000Y0080550D01*
X0136833Y0081120D01*
X0136500Y0081563D01*
X0135917Y0081880D01*
X0135250Y0081943D01*
X0134583Y0081817D01*
X0134167Y0081500D01*
X0133833Y0081057D01*
X0133750Y0080613D01*
X0133833Y0080170D01*
X0134167Y0079600D01*
X0132000Y0079790D01*
Y0081500D01*
G01X0139917Y0076843D02*
X0139667Y0076463D01*
X0139500Y0076020D01*
Y0075513D01*
X0139750Y0074943D01*
X0140167Y0074500D01*
X0140667Y0074183D01*
X0141500Y0073930D01*
X0142250Y0073867D01*
X0143000Y0073993D01*
X0143500Y0074183D01*
X0144000Y0074563D01*
X0144333Y0075007D01*
X0144500Y0075450D01*
Y0075893D01*
X0144333Y0076337D01*
X0144083Y0076717D01*
X0143750Y0077033D01*
G01X0144500Y0081310D02*
X0139500D01*
X0143083Y0078967D01*
Y0082133D01*
G01X0143557Y0066500D02*
Y0062917D01*
X0143810Y0062167D01*
X0144317Y0061667D01*
X0144950Y0061500D01*
X0145583Y0061667D01*
X0146090Y0062167D01*
X0146343Y0062917D01*
Y0066500D01*
G01X0150050Y0061500D02*
Y0066500D01*
X0149290Y0065500D01*
G01Y0061500D02*
X0150810D01*
G01X0140683Y0110000D02*
Y0115000D01*
X0142267D01*
X0142773Y0114750D01*
X0143090Y0114417D01*
X0143217Y0113750D01*
X0143090Y0113083D01*
X0142710Y0112667D01*
X0142267Y0112417D01*
X0140683D01*
G01X0142267D02*
X0143217Y0110000D01*
G01X0147810D02*
Y0115000D01*
X0145467Y0111417D01*
X0148633D01*
G01X0147843Y0133583D02*
X0147463Y0133833D01*
X0147020Y0134000D01*
X0146513D01*
X0145943Y0133750D01*
X0145500Y0133333D01*
X0145183Y0132833D01*
X0144930Y0132000D01*
X0144867Y0131250D01*
X0144993Y0130500D01*
X0145183Y0130000D01*
X0145563Y0129500D01*
X0146007Y0129167D01*
X0146450Y0129000D01*
X0146893D01*
X0147337Y0129167D01*
X0147717Y0129417D01*
X0148033Y0129750D01*
G01X0150157Y0130000D02*
X0150537Y0129417D01*
X0151043Y0129083D01*
X0151613Y0129000D01*
X0152120Y0129083D01*
X0152627Y0129500D01*
X0152943Y0130000D01*
X0153007Y0130500D01*
X0152880Y0131083D01*
X0152437Y0131500D01*
X0151993Y0131667D01*
X0151423D01*
G01X0151993D02*
X0152373Y0131917D01*
X0152690Y0132333D01*
X0152817Y0132833D01*
X0152690Y0133333D01*
X0152373Y0133750D01*
X0151803Y0134000D01*
X0151233Y0133917D01*
X0150663Y0133583D01*
G01X0136507Y0142000D02*
X0136887Y0141417D01*
X0137393Y0141083D01*
X0137963Y0141000D01*
X0138470Y0141083D01*
X0138977Y0141500D01*
X0139293Y0142000D01*
X0139357Y0142500D01*
X0139230Y0143083D01*
X0138787Y0143500D01*
X0138343Y0143667D01*
X0137773D01*
G01X0138343D02*
X0138723Y0143917D01*
X0139040Y0144333D01*
X0139167Y0144833D01*
X0139040Y0145333D01*
X0138723Y0145750D01*
X0138153Y0146000D01*
X0137583Y0145917D01*
X0137013Y0145583D01*
G01X0143000Y0140833D02*
X0142873Y0140917D01*
Y0141083D01*
X0143000Y0141167D01*
X0143127Y0141083D01*
Y0140917D01*
X0143000Y0140833D01*
G01X0146707Y0142000D02*
X0147087Y0141417D01*
X0147593Y0141083D01*
X0148163Y0141000D01*
X0148670Y0141083D01*
X0149177Y0141500D01*
X0149493Y0142000D01*
X0149557Y0142500D01*
X0149430Y0143083D01*
X0148987Y0143500D01*
X0148543Y0143667D01*
X0147973D01*
G01X0148543D02*
X0148923Y0143917D01*
X0149240Y0144333D01*
X0149367Y0144833D01*
X0149240Y0145333D01*
X0148923Y0145750D01*
X0148353Y0146000D01*
X0147783Y0145917D01*
X0147213Y0145583D01*
G01X0151617Y0146000D02*
X0153200Y0141000D01*
X0154783Y0146000D01*
G01X0142183Y0164000D02*
X0142500Y0163500D01*
X0142880Y0163167D01*
X0143323Y0163000D01*
X0143830Y0163167D01*
X0144210Y0163500D01*
X0144590Y0164000D01*
X0144717Y0164667D01*
Y0168000D01*
G01X0147347Y0167167D02*
X0147727Y0167667D01*
X0148170Y0167917D01*
X0148677Y0168000D01*
X0149310Y0167833D01*
X0149753Y0167417D01*
X0149880Y0166917D01*
X0149817Y0166417D01*
X0149563Y0166000D01*
X0148297Y0165167D01*
X0147727Y0164583D01*
X0147347Y0163750D01*
X0147220Y0163000D01*
X0149880D01*
G01X0124500Y0193000D02*
Y0187000D01*
X0290500D01*
Y0193000D01*
X0124500D01*
G01X0290500Y0197000D02*
Y0203000D01*
X0124500D01*
Y0197000D01*
X0290500D01*
G01X0124000Y0206500D02*
Y0243000D01*
X0131000D01*
Y0206500D01*
X0124000D01*
G01X0134000Y0243000D02*
Y0206500D01*
X0141000D01*
Y0243000D01*
X0134000D01*
G01X0144000Y0206500D02*
Y0243000D01*
X0151000D01*
Y0206500D01*
X0144000D01*
G01X0151000Y0266500D02*
Y0303000D01*
X0144000D01*
Y0266500D01*
X0151000D01*
G01X0141000Y0303000D02*
Y0266500D01*
X0134000D01*
Y0303000D01*
X0141000D01*
G01X0131000Y0266500D02*
Y0303000D01*
X0124000D01*
Y0266500D01*
X0131000D01*
G01X0124500Y0313000D02*
Y0307000D01*
X0290500D01*
Y0313000D01*
X0124500D01*
G01X0125150Y0346000D02*
Y0349100D01*
X0124690Y0348480D01*
G01Y0346000D02*
X0125610D01*
G01X0124422Y0338583D02*
X0124652Y0338893D01*
X0124920Y0339048D01*
X0125227Y0339100D01*
X0125610Y0338997D01*
X0125878Y0338738D01*
X0125955Y0338428D01*
X0125917Y0338118D01*
X0125763Y0337860D01*
X0124997Y0337343D01*
X0124652Y0336982D01*
X0124422Y0336465D01*
X0124345Y0336000D01*
X0125955D01*
G01X0290500Y0317000D02*
Y0323000D01*
X0124500D01*
Y0317000D01*
X0290500D01*
G01X0130183Y0342500D02*
X0130500Y0342000D01*
X0130880Y0341667D01*
X0131323Y0341500D01*
X0131830Y0341667D01*
X0132210Y0342000D01*
X0132590Y0342500D01*
X0132717Y0343167D01*
Y0346500D01*
G01X0135157Y0342500D02*
X0135537Y0341917D01*
X0136043Y0341583D01*
X0136613Y0341500D01*
X0137120Y0341583D01*
X0137627Y0342000D01*
X0137943Y0342500D01*
X0138007Y0343000D01*
X0137880Y0343583D01*
X0137437Y0344000D01*
X0136993Y0344167D01*
X0136423D01*
G01X0136993D02*
X0137373Y0344417D01*
X0137690Y0344833D01*
X0137817Y0345333D01*
X0137690Y0345833D01*
X0137373Y0346250D01*
X0136803Y0346500D01*
X0136233Y0346417D01*
X0135663Y0346083D01*
G01X0149683Y0342500D02*
X0150000Y0342000D01*
X0150380Y0341667D01*
X0150823Y0341500D01*
X0151330Y0341667D01*
X0151710Y0342000D01*
X0152090Y0342500D01*
X0152217Y0343167D01*
Y0346500D01*
G01X0156810Y0341500D02*
Y0346500D01*
X0154467Y0342917D01*
X0157633D01*
G01X0121917Y0376843D02*
X0121667Y0376463D01*
X0121500Y0376020D01*
Y0375513D01*
X0121750Y0374943D01*
X0122167Y0374500D01*
X0122667Y0374183D01*
X0123500Y0373930D01*
X0124250Y0373867D01*
X0125000Y0373993D01*
X0125500Y0374183D01*
X0126000Y0374563D01*
X0126333Y0375007D01*
X0126500Y0375450D01*
Y0375893D01*
X0126333Y0376337D01*
X0126083Y0376717D01*
X0125750Y0377033D01*
G01X0126500Y0380423D02*
X0125417Y0380550D01*
X0124500Y0380740D01*
X0123667Y0380993D01*
X0122750Y0381310D01*
X0121500Y0381817D01*
Y0379283D01*
G01X0148807Y0391120D02*
X0149037Y0390758D01*
X0149343Y0390552D01*
X0149688Y0390500D01*
X0149995Y0390552D01*
X0150302Y0390810D01*
X0150493Y0391120D01*
X0150532Y0391430D01*
X0150455Y0391792D01*
X0150187Y0392050D01*
X0149918Y0392153D01*
X0149573D01*
G01X0149918D02*
X0150148Y0392308D01*
X0150340Y0392567D01*
X0150417Y0392877D01*
X0150340Y0393187D01*
X0150148Y0393445D01*
X0149803Y0393600D01*
X0149458Y0393548D01*
X0149113Y0393342D01*
G01X0137500Y0441000D02*
Y0386000D01*
X0187500D01*
Y0441000D01*
X0137500D01*
G01X0149253Y0427000D02*
Y0432000D01*
X0150900Y0427833D01*
X0152547Y0432000D01*
Y0427000D01*
G01X0156000Y0430333D02*
Y0427000D01*
G01Y0431667D02*
X0155873Y0431750D01*
Y0431917D01*
X0156000Y0432000D01*
X0156127Y0431917D01*
Y0431750D01*
X0156000Y0431667D01*
G01X0162113Y0429917D02*
X0161670Y0430250D01*
X0161290Y0430333D01*
X0160783Y0430167D01*
X0160403Y0429833D01*
X0160150Y0429250D01*
X0160087Y0428667D01*
X0160150Y0428083D01*
X0160403Y0427583D01*
X0160783Y0427167D01*
X0161290Y0427000D01*
X0161733Y0427167D01*
X0162113Y0427500D01*
G01X0165313Y0427000D02*
Y0430333D01*
G01Y0429667D02*
X0165630Y0430000D01*
X0165947Y0430250D01*
X0166390Y0430333D01*
X0166707Y0430250D01*
X0167087Y0430000D01*
G01X0171300Y0427000D02*
X0170920Y0427083D01*
X0170540Y0427417D01*
X0170287Y0428000D01*
X0170160Y0428667D01*
X0170287Y0429333D01*
X0170540Y0429917D01*
X0170920Y0430250D01*
X0171300Y0430333D01*
X0171680Y0430250D01*
X0172060Y0429917D01*
X0172313Y0429333D01*
X0172377Y0428667D01*
X0172313Y0428000D01*
X0172060Y0427417D01*
X0171680Y0427083D01*
X0171300Y0427000D01*
G01X0148400Y0440000D02*
Y0435000D01*
G01X0146943Y0440000D02*
X0149857D01*
G01X0154640Y0435000D02*
Y0438333D01*
G01Y0437750D02*
X0154387Y0438083D01*
X0154007Y0438250D01*
X0153563Y0438333D01*
X0153120Y0438167D01*
X0152740Y0437833D01*
X0152487Y0437333D01*
X0152360Y0436667D01*
X0152487Y0436000D01*
X0152740Y0435500D01*
X0153120Y0435167D01*
X0153563Y0435000D01*
X0154007Y0435083D01*
X0154387Y0435333D01*
X0154640Y0435667D01*
G01X0157713Y0435000D02*
Y0438333D01*
G01Y0437667D02*
X0158030Y0438000D01*
X0158347Y0438250D01*
X0158790Y0438333D01*
X0159107Y0438250D01*
X0159487Y0438000D01*
G01X0162813Y0433750D02*
X0163257Y0433417D01*
X0163763Y0433333D01*
X0164207Y0433417D01*
X0164587Y0433833D01*
X0164840Y0434417D01*
Y0438333D01*
G01Y0437667D02*
X0164587Y0438000D01*
X0164207Y0438250D01*
X0163763Y0438333D01*
X0163257Y0438167D01*
X0162940Y0437833D01*
X0162687Y0437250D01*
X0162560Y0436667D01*
X0162623Y0436167D01*
X0162877Y0435583D01*
X0163257Y0435167D01*
X0163763Y0435000D01*
X0164143Y0435083D01*
X0164587Y0435417D01*
X0164840Y0435750D01*
G01X0167850Y0437250D02*
X0169877D01*
X0169687Y0437833D01*
X0169370Y0438167D01*
X0168927Y0438333D01*
X0168483Y0438250D01*
X0168103Y0438000D01*
X0167850Y0437417D01*
X0167723Y0436917D01*
Y0436417D01*
X0167850Y0435917D01*
X0168167Y0435417D01*
X0168547Y0435083D01*
X0168990Y0435000D01*
X0169433Y0435167D01*
X0169877Y0435667D01*
G01X0173900Y0440000D02*
Y0435000D01*
G01X0173013Y0438333D02*
X0174787D01*
G01X0141570Y0420667D02*
X0142077Y0420250D01*
X0142647Y0420000D01*
X0143153D01*
X0143660Y0420250D01*
X0144040Y0420667D01*
X0144230Y0421250D01*
X0144103Y0421833D01*
X0143787Y0422333D01*
X0143217Y0422667D01*
X0142457Y0422833D01*
X0142013Y0423167D01*
X0141823Y0423750D01*
X0141950Y0424333D01*
X0142267Y0424750D01*
X0142710Y0425000D01*
X0143153D01*
X0143597Y0424833D01*
X0143977Y0424417D01*
G01X0147050Y0422250D02*
X0149077D01*
X0148887Y0422833D01*
X0148570Y0423167D01*
X0148127Y0423333D01*
X0147683Y0423250D01*
X0147303Y0423000D01*
X0147050Y0422417D01*
X0146923Y0421917D01*
Y0421417D01*
X0147050Y0420917D01*
X0147367Y0420417D01*
X0147747Y0420083D01*
X0148190Y0420000D01*
X0148633Y0420167D01*
X0149077Y0420667D01*
G01X0153100Y0420000D02*
Y0425000D01*
G01X0157250Y0422250D02*
X0159277D01*
X0159087Y0422833D01*
X0158770Y0423167D01*
X0158327Y0423333D01*
X0157883Y0423250D01*
X0157503Y0423000D01*
X0157250Y0422417D01*
X0157123Y0421917D01*
Y0421417D01*
X0157250Y0420917D01*
X0157567Y0420417D01*
X0157947Y0420083D01*
X0158390Y0420000D01*
X0158833Y0420167D01*
X0159277Y0420667D01*
G01X0164313Y0422917D02*
X0163870Y0423250D01*
X0163490Y0423333D01*
X0162983Y0423167D01*
X0162603Y0422833D01*
X0162350Y0422250D01*
X0162287Y0421667D01*
X0162350Y0421083D01*
X0162603Y0420583D01*
X0162983Y0420167D01*
X0163490Y0420000D01*
X0163933Y0420167D01*
X0164313Y0420500D01*
G01X0168400Y0425000D02*
Y0420000D01*
G01X0167513Y0423333D02*
X0169287D01*
G01X0173500Y0420000D02*
X0173120Y0420083D01*
X0172740Y0420417D01*
X0172487Y0421000D01*
X0172360Y0421667D01*
X0172487Y0422333D01*
X0172740Y0422917D01*
X0173120Y0423250D01*
X0173500Y0423333D01*
X0173880Y0423250D01*
X0174260Y0422917D01*
X0174513Y0422333D01*
X0174577Y0421667D01*
X0174513Y0421000D01*
X0174260Y0420417D01*
X0173880Y0420083D01*
X0173500Y0420000D01*
G01X0177713D02*
Y0423333D01*
G01Y0422667D02*
X0178030Y0423000D01*
X0178347Y0423250D01*
X0178790Y0423333D01*
X0179107Y0423250D01*
X0179487Y0423000D01*
G01X0128650Y0465500D02*
Y0468600D01*
X0128190Y0467980D01*
G01Y0465500D02*
X0129110D01*
G01X0129422Y0440083D02*
X0129652Y0440393D01*
X0129920Y0440548D01*
X0130227Y0440600D01*
X0130610Y0440497D01*
X0130878Y0440238D01*
X0130955Y0439928D01*
X0130917Y0439618D01*
X0130763Y0439360D01*
X0129997Y0438843D01*
X0129652Y0438482D01*
X0129422Y0437965D01*
X0129345Y0437500D01*
X0130955D01*
G01X0156783Y0045800D02*
Y0039500D01*
X0159917D01*
G01X0162692D02*
X0164650Y0045800D01*
X0166608Y0039500D01*
G01X0165903Y0041705D02*
X0163397D01*
G01X0169383Y0039500D02*
Y0045800D01*
X0171263D01*
X0171890Y0045485D01*
X0172360Y0044750D01*
X0172517Y0043910D01*
X0172360Y0043070D01*
X0171968Y0042440D01*
X0171263Y0042125D01*
X0169383D01*
G01X0176310Y0045800D02*
X0178190D01*
G01X0177250D02*
Y0039500D01*
G01X0176310D02*
X0178190D01*
G01X0181905Y0040340D02*
X0182532Y0039815D01*
X0183237Y0039500D01*
X0183863D01*
X0184490Y0039815D01*
X0184960Y0040340D01*
X0185195Y0041075D01*
X0185038Y0041810D01*
X0184647Y0042440D01*
X0183942Y0042860D01*
X0183002Y0043070D01*
X0182453Y0043490D01*
X0182218Y0044225D01*
X0182375Y0044960D01*
X0182767Y0045485D01*
X0183315Y0045800D01*
X0183863D01*
X0184412Y0045590D01*
X0184882Y0045065D01*
G01X0159477Y0024860D02*
X0159790Y0025175D01*
X0160025Y0025700D01*
X0160182Y0026435D01*
X0160025Y0027065D01*
X0159712Y0027485D01*
X0159163Y0027800D01*
X0157048D01*
Y0021500D01*
X0159633D01*
X0160182Y0021920D01*
X0160495Y0022550D01*
X0160652Y0023285D01*
X0160495Y0024020D01*
X0160025Y0024650D01*
X0159477Y0024860D01*
X0157048D01*
G01X0165150Y0021500D02*
X0164523Y0021605D01*
X0163975Y0022025D01*
X0163505Y0022655D01*
X0163192Y0023390D01*
X0163035Y0024230D01*
Y0025070D01*
X0163192Y0025910D01*
X0163505Y0026645D01*
X0163975Y0027275D01*
X0164523Y0027695D01*
X0165150Y0027800D01*
X0165777Y0027695D01*
X0166325Y0027275D01*
X0166795Y0026645D01*
X0167108Y0025910D01*
X0167265Y0025070D01*
Y0024230D01*
X0167108Y0023390D01*
X0166795Y0022655D01*
X0166325Y0022025D01*
X0165777Y0021605D01*
X0165150Y0021500D01*
G01X0169492D02*
X0171450Y0027800D01*
X0173408Y0021500D01*
G01X0172703Y0023705D02*
X0170197D01*
G01X0176183Y0021500D02*
Y0027800D01*
X0178142D01*
X0178768Y0027485D01*
X0179160Y0027065D01*
X0179317Y0026225D01*
X0179160Y0025385D01*
X0178690Y0024860D01*
X0178142Y0024545D01*
X0176183D01*
G01X0178142D02*
X0179317Y0021500D01*
G01X0182327D02*
Y0027800D01*
X0183893D01*
X0184520Y0027485D01*
X0184990Y0027065D01*
X0185382Y0026435D01*
X0185695Y0025700D01*
X0185773Y0024650D01*
X0185695Y0023600D01*
X0185382Y0022865D01*
X0184990Y0022235D01*
X0184520Y0021815D01*
X0183893Y0021500D01*
X0182327D01*
G01X0163133Y0168000D02*
Y0163000D01*
X0165667D01*
G01X0168550Y0165250D02*
X0170577D01*
X0170387Y0165833D01*
X0170070Y0166167D01*
X0169627Y0166333D01*
X0169183Y0166250D01*
X0168803Y0166000D01*
X0168550Y0165417D01*
X0168423Y0164917D01*
Y0164417D01*
X0168550Y0163917D01*
X0168867Y0163417D01*
X0169247Y0163083D01*
X0169690Y0163000D01*
X0170133Y0163167D01*
X0170577Y0163667D01*
G01X0173460Y0166333D02*
X0174600Y0163000D01*
X0175740Y0166333D01*
G01X0178750Y0165250D02*
X0180777D01*
X0180587Y0165833D01*
X0180270Y0166167D01*
X0179827Y0166333D01*
X0179383Y0166250D01*
X0179003Y0166000D01*
X0178750Y0165417D01*
X0178623Y0164917D01*
Y0164417D01*
X0178750Y0163917D01*
X0179067Y0163417D01*
X0179447Y0163083D01*
X0179890Y0163000D01*
X0180333Y0163167D01*
X0180777Y0163667D01*
G01X0184800Y0163000D02*
Y0168000D01*
G01X0155070Y0153667D02*
X0155577Y0153250D01*
X0156147Y0153000D01*
X0156653D01*
X0157160Y0153250D01*
X0157540Y0153667D01*
X0157730Y0154250D01*
X0157603Y0154833D01*
X0157287Y0155333D01*
X0156717Y0155667D01*
X0155957Y0155833D01*
X0155513Y0156167D01*
X0155323Y0156750D01*
X0155450Y0157333D01*
X0155767Y0157750D01*
X0156210Y0158000D01*
X0156653D01*
X0157097Y0157833D01*
X0157477Y0157417D01*
G01X0160550Y0155250D02*
X0162577D01*
X0162387Y0155833D01*
X0162070Y0156167D01*
X0161627Y0156333D01*
X0161183Y0156250D01*
X0160803Y0156000D01*
X0160550Y0155417D01*
X0160423Y0154917D01*
Y0154417D01*
X0160550Y0153917D01*
X0160867Y0153417D01*
X0161247Y0153083D01*
X0161690Y0153000D01*
X0162133Y0153167D01*
X0162577Y0153667D01*
G01X0166600Y0153000D02*
Y0158000D01*
G01X0170750Y0155250D02*
X0172777D01*
X0172587Y0155833D01*
X0172270Y0156167D01*
X0171827Y0156333D01*
X0171383Y0156250D01*
X0171003Y0156000D01*
X0170750Y0155417D01*
X0170623Y0154917D01*
Y0154417D01*
X0170750Y0153917D01*
X0171067Y0153417D01*
X0171447Y0153083D01*
X0171890Y0153000D01*
X0172333Y0153167D01*
X0172777Y0153667D01*
G01X0177813Y0155917D02*
X0177370Y0156250D01*
X0176990Y0156333D01*
X0176483Y0156167D01*
X0176103Y0155833D01*
X0175850Y0155250D01*
X0175787Y0154667D01*
X0175850Y0154083D01*
X0176103Y0153583D01*
X0176483Y0153167D01*
X0176990Y0153000D01*
X0177433Y0153167D01*
X0177813Y0153500D01*
G01X0181900Y0158000D02*
Y0153000D01*
G01X0181013Y0156333D02*
X0182787D01*
G01X0187000Y0153000D02*
X0186620Y0153083D01*
X0186240Y0153417D01*
X0185987Y0154000D01*
X0185860Y0154667D01*
X0185987Y0155333D01*
X0186240Y0155917D01*
X0186620Y0156250D01*
X0187000Y0156333D01*
X0187380Y0156250D01*
X0187760Y0155917D01*
X0188013Y0155333D01*
X0188077Y0154667D01*
X0188013Y0154000D01*
X0187760Y0153417D01*
X0187380Y0153083D01*
X0187000Y0153000D01*
G01X0191213D02*
Y0156333D01*
G01Y0155667D02*
X0191530Y0156000D01*
X0191847Y0156250D01*
X0192290Y0156333D01*
X0192607Y0156250D01*
X0192987Y0156000D01*
G01X0159817Y0178000D02*
X0161400Y0173000D01*
X0162983Y0178000D01*
G01X0166500Y0173000D02*
X0166120Y0173083D01*
X0165740Y0173417D01*
X0165487Y0174000D01*
X0165360Y0174667D01*
X0165487Y0175333D01*
X0165740Y0175917D01*
X0166120Y0176250D01*
X0166500Y0176333D01*
X0166880Y0176250D01*
X0167260Y0175917D01*
X0167513Y0175333D01*
X0167577Y0174667D01*
X0167513Y0174000D01*
X0167260Y0173417D01*
X0166880Y0173083D01*
X0166500Y0173000D01*
G01X0171600D02*
Y0178000D01*
G01X0176700D02*
Y0173000D01*
G01X0175813Y0176333D02*
X0177587D01*
G01X0182940Y0173000D02*
Y0176333D01*
G01Y0175750D02*
X0182687Y0176083D01*
X0182307Y0176250D01*
X0181863Y0176333D01*
X0181420Y0176167D01*
X0181040Y0175833D01*
X0180787Y0175333D01*
X0180660Y0174667D01*
X0180787Y0174000D01*
X0181040Y0173500D01*
X0181420Y0173167D01*
X0181863Y0173000D01*
X0182307Y0173083D01*
X0182687Y0173333D01*
X0182940Y0173667D01*
G01X0186013Y0171750D02*
X0186457Y0171417D01*
X0186963Y0171333D01*
X0187407Y0171417D01*
X0187787Y0171833D01*
X0188040Y0172417D01*
Y0176333D01*
G01Y0175667D02*
X0187787Y0176000D01*
X0187407Y0176250D01*
X0186963Y0176333D01*
X0186457Y0176167D01*
X0186140Y0175833D01*
X0185887Y0175250D01*
X0185760Y0174667D01*
X0185823Y0174167D01*
X0186077Y0173583D01*
X0186457Y0173167D01*
X0186963Y0173000D01*
X0187343Y0173083D01*
X0187787Y0173417D01*
X0188040Y0173750D01*
G01X0191050Y0175250D02*
X0193077D01*
X0192887Y0175833D01*
X0192570Y0176167D01*
X0192127Y0176333D01*
X0191683Y0176250D01*
X0191303Y0176000D01*
X0191050Y0175417D01*
X0190923Y0174917D01*
Y0174417D01*
X0191050Y0173917D01*
X0191367Y0173417D01*
X0191747Y0173083D01*
X0192190Y0173000D01*
X0192633Y0173167D01*
X0193077Y0173667D01*
G01X0154000Y0243000D02*
Y0206500D01*
X0161000D01*
Y0243000D01*
X0154000D01*
G01X0164000Y0206500D02*
Y0243000D01*
X0171000D01*
Y0206500D01*
X0164000D01*
G01X0174000Y0243000D02*
Y0206500D01*
X0181000D01*
Y0243000D01*
X0174000D01*
G01X0181000Y0303000D02*
Y0266500D01*
X0174000D01*
Y0303000D01*
X0181000D01*
G01X0171000Y0266500D02*
Y0303000D01*
X0164000D01*
Y0266500D01*
X0171000D01*
G01X0161000Y0303000D02*
Y0266500D01*
X0154000D01*
Y0303000D01*
X0161000D01*
G01X0155922Y0335083D02*
X0156152Y0335393D01*
X0156420Y0335548D01*
X0156727Y0335600D01*
X0157110Y0335497D01*
X0157378Y0335238D01*
X0157455Y0334928D01*
X0157417Y0334618D01*
X0157263Y0334360D01*
X0156497Y0333843D01*
X0156152Y0333482D01*
X0155922Y0332965D01*
X0155845Y0332500D01*
X0157455D01*
G01X0159022Y0333792D02*
X0159290Y0334153D01*
X0159520Y0334360D01*
X0159827Y0334463D01*
X0160095Y0334360D01*
X0160287Y0334153D01*
X0160440Y0333843D01*
X0160478Y0333482D01*
X0160440Y0333172D01*
X0160287Y0332862D01*
X0160057Y0332603D01*
X0159788Y0332500D01*
X0159482Y0332603D01*
X0159213Y0332913D01*
X0159060Y0333378D01*
X0159022Y0333895D01*
X0159098Y0334567D01*
X0159213Y0334928D01*
X0159405Y0335290D01*
X0159673Y0335548D01*
X0159942Y0335600D01*
X0160210Y0335497D01*
X0160402Y0335238D01*
G01X0165422Y0357583D02*
X0165652Y0357893D01*
X0165920Y0358048D01*
X0166227Y0358100D01*
X0166610Y0357997D01*
X0166878Y0357738D01*
X0166955Y0357428D01*
X0166917Y0357118D01*
X0166763Y0356860D01*
X0165997Y0356343D01*
X0165652Y0355982D01*
X0165422Y0355465D01*
X0165345Y0355000D01*
X0166955D01*
G01X0168407Y0355465D02*
X0168637Y0355207D01*
X0168905Y0355052D01*
X0169250Y0355000D01*
X0169595Y0355103D01*
X0169863Y0355310D01*
X0170055Y0355672D01*
X0170093Y0356085D01*
X0170017Y0356498D01*
X0169825Y0356757D01*
X0169557Y0356963D01*
X0169288Y0357015D01*
X0169020Y0356963D01*
X0168675Y0356757D01*
X0168790Y0358100D01*
X0169825D01*
G01X0170650Y0390500D02*
Y0393600D01*
X0170190Y0392980D01*
G01Y0390500D02*
X0171110D01*
G01X0158922Y0393083D02*
X0159152Y0393393D01*
X0159420Y0393548D01*
X0159727Y0393600D01*
X0160110Y0393497D01*
X0160378Y0393238D01*
X0160455Y0392928D01*
X0160417Y0392618D01*
X0160263Y0392360D01*
X0159497Y0391843D01*
X0159152Y0391482D01*
X0158922Y0390965D01*
X0158845Y0390500D01*
X0160455D01*
G01X0177183Y0395000D02*
X0177500Y0394500D01*
X0177880Y0394167D01*
X0178323Y0394000D01*
X0178830Y0394167D01*
X0179210Y0394500D01*
X0179590Y0395000D01*
X0179717Y0395667D01*
Y0399000D01*
G01X0182157Y0394750D02*
X0182537Y0394333D01*
X0182980Y0394083D01*
X0183550Y0394000D01*
X0184120Y0394167D01*
X0184563Y0394500D01*
X0184880Y0395083D01*
X0184943Y0395750D01*
X0184817Y0396417D01*
X0184500Y0396833D01*
X0184057Y0397167D01*
X0183613Y0397250D01*
X0183170Y0397167D01*
X0182600Y0396833D01*
X0182790Y0399000D01*
X0184500D01*
G01X0177183Y0412000D02*
X0177500Y0411500D01*
X0177880Y0411167D01*
X0178323Y0411000D01*
X0178830Y0411167D01*
X0179210Y0411500D01*
X0179590Y0412000D01*
X0179717Y0412667D01*
Y0416000D01*
G01X0182347Y0413083D02*
X0182790Y0413667D01*
X0183170Y0414000D01*
X0183677Y0414167D01*
X0184120Y0414000D01*
X0184437Y0413667D01*
X0184690Y0413167D01*
X0184753Y0412583D01*
X0184690Y0412083D01*
X0184437Y0411583D01*
X0184057Y0411167D01*
X0183613Y0411000D01*
X0183107Y0411167D01*
X0182663Y0411667D01*
X0182410Y0412417D01*
X0182347Y0413250D01*
X0182473Y0414333D01*
X0182663Y0414917D01*
X0182980Y0415500D01*
X0183423Y0415917D01*
X0183867Y0416000D01*
X0184310Y0415833D01*
X0184627Y0415417D01*
G01X0209633Y0002000D02*
Y0009500D01*
X0211967D01*
X0212713Y0009125D01*
X0213180Y0008625D01*
X0213367Y0007625D01*
X0213180Y0006625D01*
X0212620Y0006000D01*
X0211967Y0005625D01*
X0209633D01*
G01X0211967D02*
X0213367Y0002000D01*
G01X0217040D02*
X0220960Y0009500D01*
G01X0217040D02*
X0220960Y0002000D01*
G01X0198500Y0030000D02*
Y0001000D01*
X0274000D01*
Y0030000D01*
X0198500D01*
G01X0200633Y0023000D02*
Y0028000D01*
X0202217D01*
X0202723Y0027750D01*
X0203040Y0027417D01*
X0203167Y0026750D01*
X0203040Y0026083D01*
X0202660Y0025667D01*
X0202217Y0025417D01*
X0200633D01*
G01X0202217D02*
X0203167Y0023000D01*
G01X0205797Y0027167D02*
X0206177Y0027667D01*
X0206620Y0027917D01*
X0207127Y0028000D01*
X0207760Y0027833D01*
X0208203Y0027417D01*
X0208330Y0026917D01*
X0208267Y0026417D01*
X0208013Y0026000D01*
X0206747Y0025167D01*
X0206177Y0024583D01*
X0205797Y0023750D01*
X0205670Y0023000D01*
X0208330D01*
G01X0212100D02*
Y0028000D01*
X0211340Y0027000D01*
G01Y0023000D02*
X0212860D01*
G01X0193150Y0094500D02*
Y0097600D01*
X0192690Y0096980D01*
G01Y0094500D02*
X0193610D01*
G01X0205293Y0103583D02*
X0204913Y0103833D01*
X0204470Y0104000D01*
X0203963D01*
X0203393Y0103750D01*
X0202950Y0103333D01*
X0202633Y0102833D01*
X0202380Y0102000D01*
X0202317Y0101250D01*
X0202443Y0100500D01*
X0202633Y0100000D01*
X0203013Y0099500D01*
X0203457Y0099167D01*
X0203900Y0099000D01*
X0204343D01*
X0204787Y0099167D01*
X0205167Y0099417D01*
X0205483Y0099750D01*
G01X0209000Y0099000D02*
Y0104000D01*
X0208240Y0103000D01*
G01Y0099000D02*
X0209760D01*
G01X0212897Y0103167D02*
X0213277Y0103667D01*
X0213720Y0103917D01*
X0214227Y0104000D01*
X0214860Y0103833D01*
X0215303Y0103417D01*
X0215430Y0102917D01*
X0215367Y0102417D01*
X0215113Y0102000D01*
X0213847Y0101167D01*
X0213277Y0100583D01*
X0212897Y0099750D01*
X0212770Y0099000D01*
X0215430D01*
G01X0207183Y0124000D02*
Y0129000D01*
X0208767D01*
X0209273Y0128750D01*
X0209590Y0128417D01*
X0209717Y0127750D01*
X0209590Y0127083D01*
X0209210Y0126667D01*
X0208767Y0126417D01*
X0207183D01*
G01X0208767D02*
X0209717Y0124000D01*
G01X0212157Y0125000D02*
X0212537Y0124417D01*
X0213043Y0124083D01*
X0213613Y0124000D01*
X0214120Y0124083D01*
X0214627Y0124500D01*
X0214943Y0125000D01*
X0215007Y0125500D01*
X0214880Y0126083D01*
X0214437Y0126500D01*
X0213993Y0126667D01*
X0213423D01*
G01X0213993D02*
X0214373Y0126917D01*
X0214690Y0127333D01*
X0214817Y0127833D01*
X0214690Y0128333D01*
X0214373Y0128750D01*
X0213803Y0129000D01*
X0213233Y0128917D01*
X0212663Y0128583D01*
G01X0194507Y0142750D02*
X0194887Y0142333D01*
X0195330Y0142083D01*
X0195900Y0142000D01*
X0196470Y0142167D01*
X0196913Y0142500D01*
X0197230Y0143083D01*
X0197293Y0143750D01*
X0197167Y0144417D01*
X0196850Y0144833D01*
X0196407Y0145167D01*
X0195963Y0145250D01*
X0195520Y0145167D01*
X0194950Y0144833D01*
X0195140Y0147000D01*
X0196850D01*
G01X0201000Y0141833D02*
X0200873Y0141917D01*
Y0142083D01*
X0201000Y0142167D01*
X0201127Y0142083D01*
Y0141917D01*
X0201000Y0141833D01*
G01X0206100Y0147000D02*
X0205593Y0146833D01*
X0205213Y0146417D01*
X0204960Y0145917D01*
X0204770Y0145250D01*
X0204707Y0144500D01*
X0204770Y0143750D01*
X0204960Y0143083D01*
X0205213Y0142583D01*
X0205593Y0142167D01*
X0206100Y0142000D01*
X0206607Y0142167D01*
X0206987Y0142583D01*
X0207240Y0143083D01*
X0207430Y0143750D01*
X0207493Y0144500D01*
X0207430Y0145250D01*
X0207240Y0145917D01*
X0206987Y0146417D01*
X0206607Y0146833D01*
X0206100Y0147000D01*
G01X0209617D02*
X0211200Y0142000D01*
X0212783Y0147000D01*
G01X0184000Y0206500D02*
Y0243000D01*
X0191000D01*
Y0206500D01*
X0184000D01*
G01X0194000Y0243000D02*
Y0206500D01*
X0201000D01*
Y0243000D01*
X0194000D01*
G01X0204000D02*
Y0206500D01*
X0211000D01*
Y0243000D01*
X0204000D01*
G01X0211000Y0266500D02*
Y0303000D01*
X0204000D01*
Y0266500D01*
X0211000D01*
G01X0201000Y0303000D02*
Y0266500D01*
X0194000D01*
Y0303000D01*
X0201000D01*
G01X0191000Y0266500D02*
Y0303000D01*
X0184000D01*
Y0266500D01*
X0191000D01*
G01X0200373Y0355000D02*
Y0362500D01*
X0202800Y0356250D01*
X0205227Y0362500D01*
Y0355000D01*
G01X0208433Y0362500D02*
Y0355000D01*
X0212167D01*
G01X0216027Y0358125D02*
X0216680Y0359000D01*
X0217240Y0359500D01*
X0217987Y0359750D01*
X0218640Y0359500D01*
X0219107Y0359000D01*
X0219480Y0358250D01*
X0219573Y0357375D01*
X0219480Y0356625D01*
X0219107Y0355875D01*
X0218547Y0355250D01*
X0217893Y0355000D01*
X0217147Y0355250D01*
X0216493Y0356000D01*
X0216120Y0357125D01*
X0216027Y0358375D01*
X0216213Y0360000D01*
X0216493Y0360875D01*
X0216960Y0361750D01*
X0217613Y0362375D01*
X0218267Y0362500D01*
X0218920Y0362250D01*
X0219387Y0361625D01*
G01X0225300Y0355000D02*
Y0362500D01*
X0224180Y0361000D01*
G01Y0355000D02*
X0226420D01*
G01X0232800Y0362500D02*
X0232053Y0362250D01*
X0231493Y0361625D01*
X0231120Y0360875D01*
X0230840Y0359875D01*
X0230747Y0358750D01*
X0230840Y0357625D01*
X0231120Y0356625D01*
X0231493Y0355875D01*
X0232053Y0355250D01*
X0232800Y0355000D01*
X0233547Y0355250D01*
X0234107Y0355875D01*
X0234480Y0356625D01*
X0234760Y0357625D01*
X0234853Y0358750D01*
X0234760Y0359875D01*
X0234480Y0360875D01*
X0234107Y0361625D01*
X0233547Y0362250D01*
X0232800Y0362500D01*
G01X0240300Y0355000D02*
X0239553Y0355125D01*
X0238900Y0355625D01*
X0238340Y0356375D01*
X0237967Y0357250D01*
X0237780Y0358250D01*
Y0359250D01*
X0237967Y0360250D01*
X0238340Y0361125D01*
X0238900Y0361875D01*
X0239553Y0362375D01*
X0240300Y0362500D01*
X0241047Y0362375D01*
X0241700Y0361875D01*
X0242260Y0361125D01*
X0242633Y0360250D01*
X0242820Y0359250D01*
Y0358250D01*
X0242633Y0357250D01*
X0242260Y0356375D01*
X0241700Y0355625D01*
X0241047Y0355125D01*
X0240300Y0355000D01*
G01X0241047Y0357000D02*
X0242167Y0355000D01*
G01X0247800D02*
Y0362500D01*
X0246680Y0361000D01*
G01Y0355000D02*
X0248920D01*
G01X0255300D02*
Y0362500D01*
X0254180Y0361000D01*
G01Y0355000D02*
X0256420D01*
G01X0261027Y0361250D02*
X0261587Y0362000D01*
X0262240Y0362375D01*
X0262987Y0362500D01*
X0263920Y0362250D01*
X0264573Y0361625D01*
X0264760Y0360875D01*
X0264667Y0360125D01*
X0264293Y0359500D01*
X0262427Y0358250D01*
X0261587Y0357375D01*
X0261027Y0356125D01*
X0260840Y0355000D01*
X0264760D01*
G01X0205900Y0422500D02*
X0205393Y0422583D01*
X0204950Y0422917D01*
X0204570Y0423417D01*
X0204317Y0424000D01*
X0204190Y0424667D01*
Y0425333D01*
X0204317Y0426000D01*
X0204570Y0426583D01*
X0204950Y0427083D01*
X0205393Y0427417D01*
X0205900Y0427500D01*
X0206407Y0427417D01*
X0206850Y0427083D01*
X0207230Y0426583D01*
X0207483Y0426000D01*
X0207610Y0425333D01*
Y0424667D01*
X0207483Y0424000D01*
X0207230Y0423417D01*
X0206850Y0422917D01*
X0206407Y0422583D01*
X0205900Y0422500D01*
G01X0206407Y0423833D02*
X0207167Y0422500D01*
G01X0211000D02*
Y0427500D01*
X0210240Y0426500D01*
G01Y0422500D02*
X0211760D01*
G01X0216100D02*
Y0427500D01*
X0215340Y0426500D01*
G01Y0422500D02*
X0216860D01*
G01X0219997Y0426667D02*
X0220377Y0427167D01*
X0220820Y0427417D01*
X0221327Y0427500D01*
X0221960Y0427333D01*
X0222403Y0426917D01*
X0222530Y0426417D01*
X0222467Y0425917D01*
X0222213Y0425500D01*
X0220947Y0424667D01*
X0220377Y0424083D01*
X0219997Y0423250D01*
X0219870Y0422500D01*
X0222530D01*
G01X0192150Y0408000D02*
Y0411100D01*
X0191690Y0410480D01*
G01Y0408000D02*
X0192610D01*
G01X0205007Y0469500D02*
Y0465917D01*
X0205260Y0465167D01*
X0205767Y0464667D01*
X0206400Y0464500D01*
X0207033Y0464667D01*
X0207540Y0465167D01*
X0207793Y0465917D01*
Y0469500D01*
G01X0210043Y0464500D02*
Y0469500D01*
X0212957Y0464500D01*
Y0469500D01*
G01X0215840D02*
X0217360D01*
G01X0216600D02*
Y0464500D01*
G01X0215840D02*
X0217360D01*
G01X0220117Y0469500D02*
X0221700Y0464500D01*
X0223283Y0469500D01*
G01X0228067Y0464500D02*
X0225533D01*
Y0469500D01*
X0228067D01*
G01X0227053Y0467083D02*
X0225533D01*
G01X0230633Y0464500D02*
Y0469500D01*
X0232217D01*
X0232723Y0469250D01*
X0233040Y0468917D01*
X0233167Y0468250D01*
X0233040Y0467583D01*
X0232660Y0467167D01*
X0232217Y0466917D01*
X0230633D01*
G01X0232217D02*
X0233167Y0464500D01*
G01X0235670Y0465167D02*
X0236177Y0464750D01*
X0236747Y0464500D01*
X0237253D01*
X0237760Y0464750D01*
X0238140Y0465167D01*
X0238330Y0465750D01*
X0238203Y0466333D01*
X0237887Y0466833D01*
X0237317Y0467167D01*
X0236557Y0467333D01*
X0236113Y0467667D01*
X0235923Y0468250D01*
X0236050Y0468833D01*
X0236367Y0469250D01*
X0236810Y0469500D01*
X0237253D01*
X0237697Y0469333D01*
X0238077Y0468917D01*
G01X0240517Y0464500D02*
X0242100Y0469500D01*
X0243683Y0464500D01*
G01X0243113Y0466250D02*
X0241087D01*
G01X0245933Y0469500D02*
Y0464500D01*
X0248467D01*
G01X0256070Y0465167D02*
X0256577Y0464750D01*
X0257147Y0464500D01*
X0257653D01*
X0258160Y0464750D01*
X0258540Y0465167D01*
X0258730Y0465750D01*
X0258603Y0466333D01*
X0258287Y0466833D01*
X0257717Y0467167D01*
X0256957Y0467333D01*
X0256513Y0467667D01*
X0256323Y0468250D01*
X0256450Y0468833D01*
X0256767Y0469250D01*
X0257210Y0469500D01*
X0257653D01*
X0258097Y0469333D01*
X0258477Y0468917D01*
G01X0262500Y0464500D02*
X0261993Y0464583D01*
X0261550Y0464917D01*
X0261170Y0465417D01*
X0260917Y0466000D01*
X0260790Y0466667D01*
Y0467333D01*
X0260917Y0468000D01*
X0261170Y0468583D01*
X0261550Y0469083D01*
X0261993Y0469417D01*
X0262500Y0469500D01*
X0263007Y0469417D01*
X0263450Y0469083D01*
X0263830Y0468583D01*
X0264083Y0468000D01*
X0264210Y0467333D01*
Y0466667D01*
X0264083Y0466000D01*
X0263830Y0465417D01*
X0263450Y0464917D01*
X0263007Y0464583D01*
X0262500Y0464500D01*
G01X0268993Y0469083D02*
X0268613Y0469333D01*
X0268170Y0469500D01*
X0267663D01*
X0267093Y0469250D01*
X0266650Y0468833D01*
X0266333Y0468333D01*
X0266080Y0467500D01*
X0266017Y0466750D01*
X0266143Y0466000D01*
X0266333Y0465500D01*
X0266713Y0465000D01*
X0267157Y0464667D01*
X0267600Y0464500D01*
X0268043D01*
X0268487Y0464667D01*
X0268867Y0464917D01*
X0269183Y0465250D01*
G01X0271307Y0464500D02*
Y0469500D01*
G01X0273713D02*
X0271307Y0466417D01*
G01X0274093Y0464500D02*
X0272383Y0467833D01*
G01X0279067Y0464500D02*
X0276533D01*
Y0469500D01*
X0279067D01*
G01X0278053Y0467083D02*
X0276533D01*
G01X0282900Y0469500D02*
Y0464500D01*
G01X0281443Y0469500D02*
X0284357D01*
G01X0291833Y0462833D02*
X0293100Y0469500D01*
G01X0294367D02*
X0293100Y0462833D01*
G01X0291200Y0465333D02*
X0295000D01*
G01Y0467000D02*
X0291200D01*
G01X0296997Y0468667D02*
X0297377Y0469167D01*
X0297820Y0469417D01*
X0298327Y0469500D01*
X0298960Y0469333D01*
X0299403Y0468917D01*
X0299530Y0468417D01*
X0299467Y0467917D01*
X0299213Y0467500D01*
X0297947Y0466667D01*
X0297377Y0466083D01*
X0296997Y0465250D01*
X0296870Y0464500D01*
X0299530D01*
G01X0188922Y0467583D02*
X0189152Y0467893D01*
X0189420Y0468048D01*
X0189727Y0468100D01*
X0190110Y0467997D01*
X0190378Y0467738D01*
X0190455Y0467428D01*
X0190417Y0467118D01*
X0190263Y0466860D01*
X0189497Y0466343D01*
X0189152Y0465982D01*
X0188922Y0465465D01*
X0188845Y0465000D01*
X0190455D01*
G01X0191907Y0465465D02*
X0192137Y0465207D01*
X0192405Y0465052D01*
X0192750Y0465000D01*
X0193095Y0465103D01*
X0193363Y0465310D01*
X0193555Y0465672D01*
X0193593Y0466085D01*
X0193517Y0466498D01*
X0193325Y0466757D01*
X0193057Y0466963D01*
X0192788Y0467015D01*
X0192520Y0466963D01*
X0192175Y0466757D01*
X0192290Y0468100D01*
X0193325D01*
G01X0189922Y0439583D02*
X0190152Y0439893D01*
X0190420Y0440048D01*
X0190727Y0440100D01*
X0191110Y0439997D01*
X0191378Y0439738D01*
X0191455Y0439428D01*
X0191417Y0439118D01*
X0191263Y0438860D01*
X0190497Y0438343D01*
X0190152Y0437982D01*
X0189922Y0437465D01*
X0189845Y0437000D01*
X0191455D01*
G01X0193022Y0438292D02*
X0193290Y0438653D01*
X0193520Y0438860D01*
X0193827Y0438963D01*
X0194095Y0438860D01*
X0194287Y0438653D01*
X0194440Y0438343D01*
X0194478Y0437982D01*
X0194440Y0437672D01*
X0194287Y0437362D01*
X0194057Y0437103D01*
X0193788Y0437000D01*
X0193482Y0437103D01*
X0193213Y0437413D01*
X0193060Y0437878D01*
X0193022Y0438395D01*
X0193098Y0439067D01*
X0193213Y0439428D01*
X0193405Y0439790D01*
X0193673Y0440048D01*
X0193942Y0440100D01*
X0194210Y0439997D01*
X0194402Y0439738D01*
G01X0225650Y0043500D02*
Y0046600D01*
X0225190Y0045980D01*
G01Y0043500D02*
X0226110D01*
G01X0219393Y0037883D02*
X0219013Y0038133D01*
X0218570Y0038300D01*
X0218063D01*
X0217493Y0038050D01*
X0217050Y0037633D01*
X0216733Y0037133D01*
X0216480Y0036300D01*
X0216417Y0035550D01*
X0216543Y0034800D01*
X0216733Y0034300D01*
X0217113Y0033800D01*
X0217557Y0033467D01*
X0218000Y0033300D01*
X0218443D01*
X0218887Y0033467D01*
X0219267Y0033717D01*
X0219583Y0034050D01*
G01X0223100Y0033300D02*
Y0038300D01*
X0222340Y0037300D01*
G01Y0033300D02*
X0223860D01*
G01X0228960D02*
Y0038300D01*
X0226617Y0034717D01*
X0229783D01*
G01X0216557Y0061000D02*
Y0057417D01*
X0216810Y0056667D01*
X0217317Y0056167D01*
X0217950Y0056000D01*
X0218583Y0056167D01*
X0219090Y0056667D01*
X0219343Y0057417D01*
Y0061000D01*
G01X0221657Y0056750D02*
X0222037Y0056333D01*
X0222480Y0056083D01*
X0223050Y0056000D01*
X0223620Y0056167D01*
X0224063Y0056500D01*
X0224380Y0057083D01*
X0224443Y0057750D01*
X0224317Y0058417D01*
X0224000Y0058833D01*
X0223557Y0059167D01*
X0223113Y0059250D01*
X0222670Y0059167D01*
X0222100Y0058833D01*
X0222290Y0061000D01*
X0224000D01*
G01X0215193Y0084983D02*
X0214813Y0085233D01*
X0214370Y0085400D01*
X0213863D01*
X0213293Y0085150D01*
X0212850Y0084733D01*
X0212533Y0084233D01*
X0212280Y0083400D01*
X0212217Y0082650D01*
X0212343Y0081900D01*
X0212533Y0081400D01*
X0212913Y0080900D01*
X0213357Y0080567D01*
X0213800Y0080400D01*
X0214243D01*
X0214687Y0080567D01*
X0215067Y0080817D01*
X0215383Y0081150D01*
G01X0218900Y0080400D02*
Y0085400D01*
X0218140Y0084400D01*
G01Y0080400D02*
X0219660D01*
G01X0222607Y0081400D02*
X0222987Y0080817D01*
X0223493Y0080483D01*
X0224063Y0080400D01*
X0224570Y0080483D01*
X0225077Y0080900D01*
X0225393Y0081400D01*
X0225457Y0081900D01*
X0225330Y0082483D01*
X0224887Y0082900D01*
X0224443Y0083067D01*
X0223873D01*
G01X0224443D02*
X0224823Y0083317D01*
X0225140Y0083733D01*
X0225267Y0084233D01*
X0225140Y0084733D01*
X0224823Y0085150D01*
X0224253Y0085400D01*
X0223683Y0085317D01*
X0223113Y0084983D01*
G01X0230557Y0124000D02*
Y0129000D01*
X0231823D01*
X0232330Y0128750D01*
X0232710Y0128417D01*
X0233027Y0127917D01*
X0233280Y0127333D01*
X0233343Y0126500D01*
X0233280Y0125667D01*
X0233027Y0125083D01*
X0232710Y0124583D01*
X0232330Y0124250D01*
X0231823Y0124000D01*
X0230557D01*
G01X0237050D02*
Y0129000D01*
X0236290Y0128000D01*
G01Y0124000D02*
X0237810D01*
G01X0226000Y0168317D02*
X0231000D01*
Y0166733D01*
X0230750Y0166227D01*
X0230417Y0165910D01*
X0229750Y0165783D01*
X0229083Y0165910D01*
X0228667Y0166290D01*
X0228417Y0166733D01*
Y0168317D01*
G01Y0166733D02*
X0226000Y0165783D01*
G01X0228083Y0163153D02*
X0228667Y0162710D01*
X0229000Y0162330D01*
X0229167Y0161823D01*
X0229000Y0161380D01*
X0228667Y0161063D01*
X0228167Y0160810D01*
X0227583Y0160747D01*
X0227083Y0160810D01*
X0226583Y0161063D01*
X0226167Y0161443D01*
X0226000Y0161887D01*
X0226167Y0162393D01*
X0226667Y0162837D01*
X0227417Y0163090D01*
X0228250Y0163153D01*
X0229333Y0163027D01*
X0229917Y0162837D01*
X0230500Y0162520D01*
X0230917Y0162077D01*
X0231000Y0161633D01*
X0230833Y0161190D01*
X0230417Y0160873D01*
G01X0235507Y0175750D02*
X0235887Y0175333D01*
X0236330Y0175083D01*
X0236900Y0175000D01*
X0237470Y0175167D01*
X0237913Y0175500D01*
X0238230Y0176083D01*
X0238293Y0176750D01*
X0238167Y0177417D01*
X0237850Y0177833D01*
X0237407Y0178167D01*
X0236963Y0178250D01*
X0236520Y0178167D01*
X0235950Y0177833D01*
X0236140Y0180000D01*
X0237850D01*
G01X0242000Y0174833D02*
X0241873Y0174917D01*
Y0175083D01*
X0242000Y0175167D01*
X0242127Y0175083D01*
Y0174917D01*
X0242000Y0174833D01*
G01X0247100Y0180000D02*
X0246593Y0179833D01*
X0246213Y0179417D01*
X0245960Y0178917D01*
X0245770Y0178250D01*
X0245707Y0177500D01*
X0245770Y0176750D01*
X0245960Y0176083D01*
X0246213Y0175583D01*
X0246593Y0175167D01*
X0247100Y0175000D01*
X0247607Y0175167D01*
X0247987Y0175583D01*
X0248240Y0176083D01*
X0248430Y0176750D01*
X0248493Y0177500D01*
X0248430Y0178250D01*
X0248240Y0178917D01*
X0247987Y0179417D01*
X0247607Y0179833D01*
X0247100Y0180000D01*
G01X0250617D02*
X0252200Y0175000D01*
X0253783Y0180000D01*
G01X0261133Y0175000D02*
Y0180000D01*
X0262653D01*
X0263160Y0179750D01*
X0263540Y0179167D01*
X0263667Y0178500D01*
X0263540Y0177833D01*
X0263223Y0177333D01*
X0262653Y0177083D01*
X0261133D01*
G01X0265917Y0178333D02*
X0266677Y0175000D01*
X0267500Y0178333D01*
X0268323Y0175000D01*
X0269083Y0178333D01*
G01X0271713Y0175000D02*
Y0178333D01*
G01Y0177667D02*
X0272030Y0178000D01*
X0272347Y0178250D01*
X0272790Y0178333D01*
X0273107Y0178250D01*
X0273487Y0178000D01*
G01X0277700Y0174833D02*
X0277573Y0174917D01*
Y0175083D01*
X0277700Y0175167D01*
X0277827Y0175083D01*
Y0174917D01*
X0277700Y0174833D01*
G01X0214000Y0206500D02*
Y0243000D01*
X0221000D01*
Y0206500D01*
X0214000D01*
G01X0224000Y0243000D02*
Y0206500D01*
X0231000D01*
Y0243000D01*
X0224000D01*
G01X0234000Y0206500D02*
Y0243000D01*
X0241000D01*
Y0206500D01*
X0234000D01*
G01X0241000Y0303000D02*
Y0266500D01*
X0234000D01*
Y0303000D01*
X0241000D01*
G01X0231000Y0266500D02*
Y0303000D01*
X0224000D01*
Y0266500D01*
X0231000D01*
G01X0221000Y0303000D02*
Y0266500D01*
X0214000D01*
Y0303000D01*
X0221000D01*
G01X0229057Y0379000D02*
Y0375417D01*
X0229310Y0374667D01*
X0229817Y0374167D01*
X0230450Y0374000D01*
X0231083Y0374167D01*
X0231590Y0374667D01*
X0231843Y0375417D01*
Y0379000D01*
G01X0234157Y0375000D02*
X0234537Y0374417D01*
X0235043Y0374083D01*
X0235613Y0374000D01*
X0236120Y0374083D01*
X0236627Y0374500D01*
X0236943Y0375000D01*
X0237007Y0375500D01*
X0236880Y0376083D01*
X0236437Y0376500D01*
X0235993Y0376667D01*
X0235423D01*
G01X0235993D02*
X0236373Y0376917D01*
X0236690Y0377333D01*
X0236817Y0377833D01*
X0236690Y0378333D01*
X0236373Y0378750D01*
X0235803Y0379000D01*
X0235233Y0378917D01*
X0234663Y0378583D01*
G01X0253100Y0009500D02*
Y0002000D01*
G01X0250953Y0009500D02*
X0255247D01*
G01X0258640Y0002000D02*
X0262560Y0009500D01*
G01X0258640D02*
X0262560Y0002000D01*
G01X0259633Y0021000D02*
Y0026000D01*
X0261217D01*
X0261723Y0025750D01*
X0262040Y0025417D01*
X0262167Y0024750D01*
X0262040Y0024083D01*
X0261660Y0023667D01*
X0261217Y0023417D01*
X0259633D01*
G01X0261217D02*
X0262167Y0021000D01*
G01X0264797Y0025167D02*
X0265177Y0025667D01*
X0265620Y0025917D01*
X0266127Y0026000D01*
X0266760Y0025833D01*
X0267203Y0025417D01*
X0267330Y0024917D01*
X0267267Y0024417D01*
X0267013Y0024000D01*
X0265747Y0023167D01*
X0265177Y0022583D01*
X0264797Y0021750D01*
X0264670Y0021000D01*
X0267330D01*
G01X0269897Y0025167D02*
X0270277Y0025667D01*
X0270720Y0025917D01*
X0271227Y0026000D01*
X0271860Y0025833D01*
X0272303Y0025417D01*
X0272430Y0024917D01*
X0272367Y0024417D01*
X0272113Y0024000D01*
X0270847Y0023167D01*
X0270277Y0022583D01*
X0269897Y0021750D01*
X0269770Y0021000D01*
X0272430D01*
G01X0269500Y0052733D02*
X0264500D01*
Y0054317D01*
X0264750Y0054823D01*
X0265083Y0055140D01*
X0265750Y0055267D01*
X0266417Y0055140D01*
X0266833Y0054760D01*
X0267083Y0054317D01*
Y0052733D01*
G01Y0054317D02*
X0269500Y0055267D01*
G01X0265333Y0057897D02*
X0264833Y0058277D01*
X0264583Y0058720D01*
X0264500Y0059227D01*
X0264667Y0059860D01*
X0265083Y0060303D01*
X0265583Y0060430D01*
X0266083Y0060367D01*
X0266500Y0060113D01*
X0267333Y0058847D01*
X0267917Y0058277D01*
X0268750Y0057897D01*
X0269500Y0057770D01*
Y0060430D01*
G01X0268750Y0062807D02*
X0269167Y0063187D01*
X0269417Y0063630D01*
X0269500Y0064200D01*
X0269333Y0064770D01*
X0269000Y0065213D01*
X0268417Y0065530D01*
X0267750Y0065593D01*
X0267083Y0065467D01*
X0266667Y0065150D01*
X0266333Y0064707D01*
X0266250Y0064263D01*
X0266333Y0063820D01*
X0266667Y0063250D01*
X0264500Y0063440D01*
Y0065150D01*
G01X0255717Y0050693D02*
X0255467Y0050313D01*
X0255300Y0049870D01*
Y0049363D01*
X0255550Y0048793D01*
X0255967Y0048350D01*
X0256467Y0048033D01*
X0257300Y0047780D01*
X0258050Y0047717D01*
X0258800Y0047843D01*
X0259300Y0048033D01*
X0259800Y0048413D01*
X0260133Y0048857D01*
X0260300Y0049300D01*
Y0049743D01*
X0260133Y0050187D01*
X0259883Y0050567D01*
X0259550Y0050883D01*
G01X0260300Y0054400D02*
X0255300D01*
X0256300Y0053640D01*
G01X0260300D02*
Y0055160D01*
G01X0259717Y0058423D02*
X0260133Y0058867D01*
X0260300Y0059373D01*
X0260133Y0059880D01*
X0259633Y0060323D01*
X0258883Y0060640D01*
X0258133Y0060767D01*
X0257217D01*
X0256467Y0060640D01*
X0255800Y0060323D01*
X0255467Y0059943D01*
X0255300Y0059500D01*
X0255467Y0058993D01*
X0255800Y0058613D01*
X0256300Y0058360D01*
X0256967Y0058233D01*
X0257550Y0058360D01*
X0258133Y0058677D01*
X0258467Y0059057D01*
X0258550Y0059500D01*
X0258383Y0060007D01*
X0257967Y0060387D01*
X0257217Y0060767D01*
G01X0266000Y0084133D02*
X0261000D01*
Y0085717D01*
X0261250Y0086223D01*
X0261583Y0086540D01*
X0262250Y0086667D01*
X0262917Y0086540D01*
X0263333Y0086160D01*
X0263583Y0085717D01*
Y0084133D01*
G01Y0085717D02*
X0266000Y0086667D01*
G01X0261833Y0089297D02*
X0261333Y0089677D01*
X0261083Y0090120D01*
X0261000Y0090627D01*
X0261167Y0091260D01*
X0261583Y0091703D01*
X0262083Y0091830D01*
X0262583Y0091767D01*
X0263000Y0091513D01*
X0263833Y0090247D01*
X0264417Y0089677D01*
X0265250Y0089297D01*
X0266000Y0089170D01*
Y0091830D01*
G01X0261000Y0095600D02*
X0261167Y0095093D01*
X0261583Y0094713D01*
X0262083Y0094460D01*
X0262750Y0094270D01*
X0263500Y0094207D01*
X0264250Y0094270D01*
X0264917Y0094460D01*
X0265417Y0094713D01*
X0265833Y0095093D01*
X0266000Y0095600D01*
X0265833Y0096107D01*
X0265417Y0096487D01*
X0264917Y0096740D01*
X0264250Y0096930D01*
X0263500Y0096993D01*
X0262750Y0096930D01*
X0262083Y0096740D01*
X0261583Y0096487D01*
X0261167Y0096107D01*
X0261000Y0095600D01*
G01X0248217Y0092793D02*
X0247967Y0092413D01*
X0247800Y0091970D01*
Y0091463D01*
X0248050Y0090893D01*
X0248467Y0090450D01*
X0248967Y0090133D01*
X0249800Y0089880D01*
X0250550Y0089817D01*
X0251300Y0089943D01*
X0251800Y0090133D01*
X0252300Y0090513D01*
X0252633Y0090957D01*
X0252800Y0091400D01*
Y0091843D01*
X0252633Y0092287D01*
X0252383Y0092667D01*
X0252050Y0092983D01*
G01X0252800Y0096500D02*
X0247800D01*
X0248800Y0095740D01*
G01X0252800D02*
Y0097260D01*
G01Y0101600D02*
X0252717Y0102043D01*
X0252467Y0102550D01*
X0252050Y0102867D01*
X0251467Y0102993D01*
X0250883Y0102867D01*
X0250383Y0102487D01*
X0250133Y0101917D01*
Y0101283D01*
X0249967Y0100903D01*
X0249550Y0100587D01*
X0248967Y0100460D01*
X0248383Y0100650D01*
X0247967Y0101093D01*
X0247800Y0101600D01*
X0247967Y0102107D01*
X0248383Y0102550D01*
X0248967Y0102740D01*
X0249550Y0102613D01*
X0249967Y0102297D01*
X0250133Y0101917D01*
Y0101283D01*
X0250383Y0100713D01*
X0250883Y0100333D01*
X0251467Y0100207D01*
X0252050Y0100333D01*
X0252467Y0100650D01*
X0252717Y0101157D01*
X0252800Y0101600D01*
G01X0250133Y0109500D02*
Y0114500D01*
X0251717D01*
X0252223Y0114250D01*
X0252540Y0113917D01*
X0252667Y0113250D01*
X0252540Y0112583D01*
X0252160Y0112167D01*
X0251717Y0111917D01*
X0250133D01*
G01X0251717D02*
X0252667Y0109500D01*
G01X0255297Y0113667D02*
X0255677Y0114167D01*
X0256120Y0114417D01*
X0256627Y0114500D01*
X0257260Y0114333D01*
X0257703Y0113917D01*
X0257830Y0113417D01*
X0257767Y0112917D01*
X0257513Y0112500D01*
X0256247Y0111667D01*
X0255677Y0111083D01*
X0255297Y0110250D01*
X0255170Y0109500D01*
X0257830D01*
G01X0260207Y0110500D02*
X0260587Y0109917D01*
X0261093Y0109583D01*
X0261663Y0109500D01*
X0262170Y0109583D01*
X0262677Y0110000D01*
X0262993Y0110500D01*
X0263057Y0111000D01*
X0262930Y0111583D01*
X0262487Y0112000D01*
X0262043Y0112167D01*
X0261473D01*
G01X0262043D02*
X0262423Y0112417D01*
X0262740Y0112833D01*
X0262867Y0113333D01*
X0262740Y0113833D01*
X0262423Y0114250D01*
X0261853Y0114500D01*
X0261283Y0114417D01*
X0260713Y0114083D01*
G01X0244000Y0243000D02*
Y0206500D01*
X0251000D01*
Y0243000D01*
X0244000D01*
G01X0254000Y0206500D02*
Y0243000D01*
X0261000D01*
Y0206500D01*
X0254000D01*
G01X0264000Y0243000D02*
Y0206500D01*
X0271000D01*
Y0243000D01*
X0264000D01*
G01X0271000Y0266500D02*
Y0303000D01*
X0264000D01*
Y0266500D01*
X0271000D01*
G01X0261000Y0303000D02*
Y0266500D01*
X0254000D01*
Y0303000D01*
X0261000D01*
G01X0251000Y0266500D02*
Y0303000D01*
X0244000D01*
Y0266500D01*
X0251000D01*
G01X0242917Y0382343D02*
X0242667Y0381963D01*
X0242500Y0381520D01*
Y0381013D01*
X0242750Y0380443D01*
X0243167Y0380000D01*
X0243667Y0379683D01*
X0244500Y0379430D01*
X0245250Y0379367D01*
X0246000Y0379493D01*
X0246500Y0379683D01*
X0247000Y0380063D01*
X0247333Y0380507D01*
X0247500Y0380950D01*
Y0381393D01*
X0247333Y0381837D01*
X0247083Y0382217D01*
X0246750Y0382533D01*
G01X0247500Y0386050D02*
X0242500D01*
X0243500Y0385290D01*
G01X0247500D02*
Y0386810D01*
G01X0260417Y0402343D02*
X0260167Y0401963D01*
X0260000Y0401520D01*
Y0401013D01*
X0260250Y0400443D01*
X0260667Y0400000D01*
X0261167Y0399683D01*
X0262000Y0399430D01*
X0262750Y0399367D01*
X0263500Y0399493D01*
X0264000Y0399683D01*
X0264500Y0400063D01*
X0264833Y0400507D01*
X0265000Y0400950D01*
Y0401393D01*
X0264833Y0401837D01*
X0264583Y0402217D01*
X0264250Y0402533D01*
G01X0260833Y0404847D02*
X0260333Y0405227D01*
X0260083Y0405670D01*
X0260000Y0406177D01*
X0260167Y0406810D01*
X0260583Y0407253D01*
X0261083Y0407380D01*
X0261583Y0407317D01*
X0262000Y0407063D01*
X0262833Y0405797D01*
X0263417Y0405227D01*
X0264250Y0404847D01*
X0265000Y0404720D01*
Y0407380D01*
G01X0247683Y0419000D02*
Y0424000D01*
X0249267D01*
X0249773Y0423750D01*
X0250090Y0423417D01*
X0250217Y0422750D01*
X0250090Y0422083D01*
X0249710Y0421667D01*
X0249267Y0421417D01*
X0247683D01*
G01X0249267D02*
X0250217Y0419000D01*
G01X0254050D02*
Y0424000D01*
X0253290Y0423000D01*
G01Y0419000D02*
X0254810D01*
G01X0278817Y0058493D02*
X0278567Y0058113D01*
X0278400Y0057670D01*
Y0057163D01*
X0278650Y0056593D01*
X0279067Y0056150D01*
X0279567Y0055833D01*
X0280400Y0055580D01*
X0281150Y0055517D01*
X0281900Y0055643D01*
X0282400Y0055833D01*
X0282900Y0056213D01*
X0283233Y0056657D01*
X0283400Y0057100D01*
Y0057543D01*
X0283233Y0057987D01*
X0282983Y0058367D01*
X0282650Y0058683D01*
G01X0283400Y0062200D02*
X0278400D01*
X0279400Y0061440D01*
G01X0283400D02*
Y0062960D01*
G01Y0067173D02*
X0282317Y0067300D01*
X0281400Y0067490D01*
X0280567Y0067743D01*
X0279650Y0068060D01*
X0278400Y0068567D01*
Y0066033D01*
G01X0284833Y0085700D02*
Y0090700D01*
X0286417D01*
X0286923Y0090450D01*
X0287240Y0090117D01*
X0287367Y0089450D01*
X0287240Y0088783D01*
X0286860Y0088367D01*
X0286417Y0088117D01*
X0284833D01*
G01X0286417D02*
X0287367Y0085700D01*
G01X0289997Y0089867D02*
X0290377Y0090367D01*
X0290820Y0090617D01*
X0291327Y0090700D01*
X0291960Y0090533D01*
X0292403Y0090117D01*
X0292530Y0089617D01*
X0292467Y0089117D01*
X0292213Y0088700D01*
X0290947Y0087867D01*
X0290377Y0087283D01*
X0289997Y0086450D01*
X0289870Y0085700D01*
X0292530D01*
G01X0297060D02*
Y0090700D01*
X0294717Y0087117D01*
X0297883D01*
G01X0285417Y0096093D02*
X0285167Y0095713D01*
X0285000Y0095270D01*
Y0094763D01*
X0285250Y0094193D01*
X0285667Y0093750D01*
X0286167Y0093433D01*
X0287000Y0093180D01*
X0287750Y0093117D01*
X0288500Y0093243D01*
X0289000Y0093433D01*
X0289500Y0093813D01*
X0289833Y0094257D01*
X0290000Y0094700D01*
Y0095143D01*
X0289833Y0095587D01*
X0289583Y0095967D01*
X0289250Y0096283D01*
G01X0290000Y0099800D02*
X0285000D01*
X0286000Y0099040D01*
G01X0290000D02*
Y0100560D01*
G01X0287917Y0103697D02*
X0287333Y0104140D01*
X0287000Y0104520D01*
X0286833Y0105027D01*
X0287000Y0105470D01*
X0287333Y0105787D01*
X0287833Y0106040D01*
X0288417Y0106103D01*
X0288917Y0106040D01*
X0289417Y0105787D01*
X0289833Y0105407D01*
X0290000Y0104963D01*
X0289833Y0104457D01*
X0289333Y0104013D01*
X0288583Y0103760D01*
X0287750Y0103697D01*
X0286667Y0103823D01*
X0286083Y0104013D01*
X0285500Y0104330D01*
X0285083Y0104773D01*
X0285000Y0105217D01*
X0285167Y0105660D01*
X0285583Y0105977D01*
G01X0318709Y0091500D02*
Y0136500D01*
X0295874D01*
Y0091500D01*
X0318709D01*
G01X0295000Y0119150D02*
X0291900D01*
X0292520Y0118690D01*
G01X0295000D02*
Y0119610D01*
G01X0294535Y0107807D02*
X0294793Y0108037D01*
X0294948Y0108305D01*
X0295000Y0108650D01*
X0294897Y0108995D01*
X0294690Y0109263D01*
X0294328Y0109455D01*
X0293915Y0109493D01*
X0293502Y0109417D01*
X0293243Y0109225D01*
X0293037Y0108957D01*
X0292985Y0108688D01*
X0293037Y0108420D01*
X0293243Y0108075D01*
X0291900Y0108190D01*
Y0109225D01*
G01X0271697Y0123500D02*
Y0128500D01*
X0274103D01*
G01X0273217Y0126083D02*
X0271697D01*
G01X0278507Y0126167D02*
X0278760Y0126417D01*
X0278950Y0126833D01*
X0279077Y0127417D01*
X0278950Y0127917D01*
X0278697Y0128250D01*
X0278253Y0128500D01*
X0276543D01*
Y0123500D01*
X0278633D01*
X0279077Y0123833D01*
X0279330Y0124333D01*
X0279457Y0124917D01*
X0279330Y0125500D01*
X0278950Y0126000D01*
X0278507Y0126167D01*
X0276543D01*
G01X0283100Y0123500D02*
Y0128500D01*
X0282340Y0127500D01*
G01Y0123500D02*
X0283860D01*
G01X0297883Y0156000D02*
Y0159100D01*
X0298803D01*
X0299110Y0158945D01*
X0299340Y0158583D01*
X0299417Y0158170D01*
X0299340Y0157757D01*
X0299148Y0157447D01*
X0298803Y0157292D01*
X0297883D01*
G01X0301750Y0156000D02*
X0301443Y0156052D01*
X0301175Y0156258D01*
X0300945Y0156568D01*
X0300792Y0156930D01*
X0300715Y0157343D01*
Y0157757D01*
X0300792Y0158170D01*
X0300945Y0158532D01*
X0301175Y0158842D01*
X0301443Y0159048D01*
X0301750Y0159100D01*
X0302057Y0159048D01*
X0302325Y0158842D01*
X0302555Y0158532D01*
X0302708Y0158170D01*
X0302785Y0157757D01*
Y0157343D01*
X0302708Y0156930D01*
X0302555Y0156568D01*
X0302325Y0156258D01*
X0302057Y0156052D01*
X0301750Y0156000D01*
G01X0304045Y0156413D02*
X0304352Y0156155D01*
X0304697Y0156000D01*
X0305003D01*
X0305310Y0156155D01*
X0305540Y0156413D01*
X0305655Y0156775D01*
X0305578Y0157137D01*
X0305387Y0157447D01*
X0305042Y0157653D01*
X0304582Y0157757D01*
X0304313Y0157963D01*
X0304198Y0158325D01*
X0304275Y0158687D01*
X0304467Y0158945D01*
X0304735Y0159100D01*
X0305003D01*
X0305272Y0158997D01*
X0305502Y0158738D01*
G01X0294380Y0147050D02*
X0295147D01*
Y0146120D01*
X0294917Y0145810D01*
X0294648Y0145603D01*
X0294265Y0145500D01*
X0293882Y0145603D01*
X0293613Y0145810D01*
X0293383Y0146120D01*
X0293230Y0146482D01*
X0293153Y0146895D01*
Y0147257D01*
X0293230Y0147567D01*
X0293383Y0147928D01*
X0293613Y0148238D01*
X0293843Y0148445D01*
X0294150Y0148600D01*
X0294418D01*
X0294725Y0148497D01*
X0294955Y0148290D01*
G01X0296368Y0145500D02*
Y0148600D01*
X0298132Y0145500D01*
Y0148600D01*
G01X0299507Y0145500D02*
Y0148600D01*
X0300273D01*
X0300580Y0148445D01*
X0300810Y0148238D01*
X0301002Y0147928D01*
X0301155Y0147567D01*
X0301193Y0147050D01*
X0301155Y0146533D01*
X0301002Y0146172D01*
X0300810Y0145862D01*
X0300580Y0145655D01*
X0300273Y0145500D01*
X0299507D01*
G01X0287083Y0156707D02*
X0287333Y0157087D01*
X0287500Y0157530D01*
Y0158037D01*
X0287250Y0158607D01*
X0286833Y0159050D01*
X0286333Y0159367D01*
X0285500Y0159620D01*
X0284750Y0159683D01*
X0284000Y0159557D01*
X0283500Y0159367D01*
X0283000Y0158987D01*
X0282667Y0158543D01*
X0282500Y0158100D01*
Y0157657D01*
X0282667Y0157213D01*
X0282917Y0156833D01*
X0283250Y0156517D01*
G01X0282500Y0153000D02*
X0287500D01*
X0286500Y0153760D01*
G01X0282500D02*
Y0152240D01*
G01X0283250Y0149293D02*
X0282833Y0148913D01*
X0282583Y0148470D01*
X0282500Y0147900D01*
X0282667Y0147330D01*
X0283000Y0146887D01*
X0283583Y0146570D01*
X0284250Y0146507D01*
X0284917Y0146633D01*
X0285333Y0146950D01*
X0285667Y0147393D01*
X0285750Y0147837D01*
X0285667Y0148280D01*
X0285333Y0148850D01*
X0287500Y0148660D01*
Y0146950D01*
G01X0294380Y0189550D02*
X0295147D01*
Y0188620D01*
X0294917Y0188310D01*
X0294648Y0188103D01*
X0294265Y0188000D01*
X0293882Y0188103D01*
X0293613Y0188310D01*
X0293383Y0188620D01*
X0293230Y0188982D01*
X0293153Y0189395D01*
Y0189757D01*
X0293230Y0190067D01*
X0293383Y0190428D01*
X0293613Y0190738D01*
X0293843Y0190945D01*
X0294150Y0191100D01*
X0294418D01*
X0294725Y0190997D01*
X0294955Y0190790D01*
G01X0296368Y0188000D02*
Y0191100D01*
X0298132Y0188000D01*
Y0191100D01*
G01X0299507Y0188000D02*
Y0191100D01*
X0300273D01*
X0300580Y0190945D01*
X0300810Y0190738D01*
X0301002Y0190428D01*
X0301155Y0190067D01*
X0301193Y0189550D01*
X0301155Y0189033D01*
X0301002Y0188672D01*
X0300810Y0188362D01*
X0300580Y0188155D01*
X0300273Y0188000D01*
X0299507D01*
G01X0293383Y0198000D02*
Y0201100D01*
X0294303D01*
X0294610Y0200945D01*
X0294840Y0200583D01*
X0294917Y0200170D01*
X0294840Y0199757D01*
X0294648Y0199447D01*
X0294303Y0199292D01*
X0293383D01*
G01X0297250Y0198000D02*
X0296943Y0198052D01*
X0296675Y0198258D01*
X0296445Y0198568D01*
X0296292Y0198930D01*
X0296215Y0199343D01*
Y0199757D01*
X0296292Y0200170D01*
X0296445Y0200532D01*
X0296675Y0200842D01*
X0296943Y0201048D01*
X0297250Y0201100D01*
X0297557Y0201048D01*
X0297825Y0200842D01*
X0298055Y0200532D01*
X0298208Y0200170D01*
X0298285Y0199757D01*
Y0199343D01*
X0298208Y0198930D01*
X0298055Y0198568D01*
X0297825Y0198258D01*
X0297557Y0198052D01*
X0297250Y0198000D01*
G01X0299545Y0198413D02*
X0299852Y0198155D01*
X0300197Y0198000D01*
X0300503D01*
X0300810Y0198155D01*
X0301040Y0198413D01*
X0301155Y0198775D01*
X0301078Y0199137D01*
X0300887Y0199447D01*
X0300542Y0199653D01*
X0300082Y0199757D01*
X0299813Y0199963D01*
X0299698Y0200325D01*
X0299775Y0200687D01*
X0299967Y0200945D01*
X0300235Y0201100D01*
X0300503D01*
X0300772Y0200997D01*
X0301002Y0200738D01*
G01X0274000Y0206500D02*
Y0243000D01*
X0281000D01*
Y0206500D01*
X0274000D01*
G01X0284000Y0243000D02*
Y0206500D01*
X0291000D01*
Y0243000D01*
X0284000D01*
G01X0294380Y0249550D02*
X0295147D01*
Y0248620D01*
X0294917Y0248310D01*
X0294648Y0248103D01*
X0294265Y0248000D01*
X0293882Y0248103D01*
X0293613Y0248310D01*
X0293383Y0248620D01*
X0293230Y0248982D01*
X0293153Y0249395D01*
Y0249757D01*
X0293230Y0250067D01*
X0293383Y0250428D01*
X0293613Y0250738D01*
X0293843Y0250945D01*
X0294150Y0251100D01*
X0294418D01*
X0294725Y0250997D01*
X0294955Y0250790D01*
G01X0296368Y0248000D02*
Y0251100D01*
X0298132Y0248000D01*
Y0251100D01*
G01X0299507Y0248000D02*
Y0251100D01*
X0300273D01*
X0300580Y0250945D01*
X0300810Y0250738D01*
X0301002Y0250428D01*
X0301155Y0250067D01*
X0301193Y0249550D01*
X0301155Y0249033D01*
X0301002Y0248672D01*
X0300810Y0248362D01*
X0300580Y0248155D01*
X0300273Y0248000D01*
X0299507D01*
G01X0293383Y0258000D02*
Y0261100D01*
X0294303D01*
X0294610Y0260945D01*
X0294840Y0260583D01*
X0294917Y0260170D01*
X0294840Y0259757D01*
X0294648Y0259447D01*
X0294303Y0259292D01*
X0293383D01*
G01X0297250Y0258000D02*
X0296943Y0258052D01*
X0296675Y0258258D01*
X0296445Y0258568D01*
X0296292Y0258930D01*
X0296215Y0259343D01*
Y0259757D01*
X0296292Y0260170D01*
X0296445Y0260532D01*
X0296675Y0260842D01*
X0296943Y0261048D01*
X0297250Y0261100D01*
X0297557Y0261048D01*
X0297825Y0260842D01*
X0298055Y0260532D01*
X0298208Y0260170D01*
X0298285Y0259757D01*
Y0259343D01*
X0298208Y0258930D01*
X0298055Y0258568D01*
X0297825Y0258258D01*
X0297557Y0258052D01*
X0297250Y0258000D01*
G01X0299545Y0258413D02*
X0299852Y0258155D01*
X0300197Y0258000D01*
X0300503D01*
X0300810Y0258155D01*
X0301040Y0258413D01*
X0301155Y0258775D01*
X0301078Y0259137D01*
X0300887Y0259447D01*
X0300542Y0259653D01*
X0300082Y0259757D01*
X0299813Y0259963D01*
X0299698Y0260325D01*
X0299775Y0260687D01*
X0299967Y0260945D01*
X0300235Y0261100D01*
X0300503D01*
X0300772Y0260997D01*
X0301002Y0260738D01*
G01X0291000Y0266500D02*
Y0303000D01*
X0284000D01*
Y0266500D01*
X0291000D01*
G01X0281000Y0303000D02*
Y0266500D01*
X0274000D01*
Y0303000D01*
X0281000D01*
G01X0294380Y0310550D02*
X0295147D01*
Y0309620D01*
X0294917Y0309310D01*
X0294648Y0309103D01*
X0294265Y0309000D01*
X0293882Y0309103D01*
X0293613Y0309310D01*
X0293383Y0309620D01*
X0293230Y0309982D01*
X0293153Y0310395D01*
Y0310757D01*
X0293230Y0311067D01*
X0293383Y0311428D01*
X0293613Y0311738D01*
X0293843Y0311945D01*
X0294150Y0312100D01*
X0294418D01*
X0294725Y0311997D01*
X0294955Y0311790D01*
G01X0296368Y0309000D02*
Y0312100D01*
X0298132Y0309000D01*
Y0312100D01*
G01X0299507Y0309000D02*
Y0312100D01*
X0300273D01*
X0300580Y0311945D01*
X0300810Y0311738D01*
X0301002Y0311428D01*
X0301155Y0311067D01*
X0301193Y0310550D01*
X0301155Y0310033D01*
X0301002Y0309672D01*
X0300810Y0309362D01*
X0300580Y0309155D01*
X0300273Y0309000D01*
X0299507D01*
G01X0293383Y0319000D02*
Y0322100D01*
X0294303D01*
X0294610Y0321945D01*
X0294840Y0321583D01*
X0294917Y0321170D01*
X0294840Y0320757D01*
X0294648Y0320447D01*
X0294303Y0320292D01*
X0293383D01*
G01X0297250Y0319000D02*
X0296943Y0319052D01*
X0296675Y0319258D01*
X0296445Y0319568D01*
X0296292Y0319930D01*
X0296215Y0320343D01*
Y0320757D01*
X0296292Y0321170D01*
X0296445Y0321532D01*
X0296675Y0321842D01*
X0296943Y0322048D01*
X0297250Y0322100D01*
X0297557Y0322048D01*
X0297825Y0321842D01*
X0298055Y0321532D01*
X0298208Y0321170D01*
X0298285Y0320757D01*
Y0320343D01*
X0298208Y0319930D01*
X0298055Y0319568D01*
X0297825Y0319258D01*
X0297557Y0319052D01*
X0297250Y0319000D01*
G01X0299545Y0319413D02*
X0299852Y0319155D01*
X0300197Y0319000D01*
X0300503D01*
X0300810Y0319155D01*
X0301040Y0319413D01*
X0301155Y0319775D01*
X0301078Y0320137D01*
X0300887Y0320447D01*
X0300542Y0320653D01*
X0300082Y0320757D01*
X0299813Y0320963D01*
X0299698Y0321325D01*
X0299775Y0321687D01*
X0299967Y0321945D01*
X0300235Y0322100D01*
X0300503D01*
X0300772Y0321997D01*
X0301002Y0321738D01*
G01X0298922Y0337083D02*
X0299152Y0337393D01*
X0299420Y0337548D01*
X0299727Y0337600D01*
X0300110Y0337497D01*
X0300378Y0337238D01*
X0300455Y0336928D01*
X0300417Y0336618D01*
X0300263Y0336360D01*
X0299497Y0335843D01*
X0299152Y0335482D01*
X0298922Y0334965D01*
X0298845Y0334500D01*
X0300455D01*
G01X0297650Y0347000D02*
Y0350100D01*
X0297190Y0349480D01*
G01Y0347000D02*
X0298110D01*
G01X0284133Y0396000D02*
Y0401000D01*
X0285717D01*
X0286223Y0400750D01*
X0286540Y0400417D01*
X0286667Y0399750D01*
X0286540Y0399083D01*
X0286160Y0398667D01*
X0285717Y0398417D01*
X0284133D01*
G01X0285717D02*
X0286667Y0396000D01*
G01X0290500D02*
Y0401000D01*
X0289740Y0400000D01*
G01Y0396000D02*
X0291260D01*
G01X0294397Y0398083D02*
X0294840Y0398667D01*
X0295220Y0399000D01*
X0295727Y0399167D01*
X0296170Y0399000D01*
X0296487Y0398667D01*
X0296740Y0398167D01*
X0296803Y0397583D01*
X0296740Y0397083D01*
X0296487Y0396583D01*
X0296107Y0396167D01*
X0295663Y0396000D01*
X0295157Y0396167D01*
X0294713Y0396667D01*
X0294460Y0397417D01*
X0294397Y0398250D01*
X0294523Y0399333D01*
X0294713Y0399917D01*
X0295030Y0400500D01*
X0295473Y0400917D01*
X0295917Y0401000D01*
X0296360Y0400833D01*
X0296677Y0400417D01*
G01X0279633Y0410500D02*
Y0415500D01*
X0281217D01*
X0281723Y0415250D01*
X0282040Y0414917D01*
X0282167Y0414250D01*
X0282040Y0413583D01*
X0281660Y0413167D01*
X0281217Y0412917D01*
X0279633D01*
G01X0281217D02*
X0282167Y0410500D01*
G01X0286000D02*
Y0415500D01*
X0285240Y0414500D01*
G01Y0410500D02*
X0286760D01*
G01X0291100D02*
Y0415500D01*
X0290340Y0414500D01*
G01Y0410500D02*
X0291860D01*
G01X0279633Y0421500D02*
Y0426500D01*
X0281217D01*
X0281723Y0426250D01*
X0282040Y0425917D01*
X0282167Y0425250D01*
X0282040Y0424583D01*
X0281660Y0424167D01*
X0281217Y0423917D01*
X0279633D01*
G01X0281217D02*
X0282167Y0421500D01*
G01X0286000D02*
Y0426500D01*
X0285240Y0425500D01*
G01Y0421500D02*
X0286760D01*
G01X0289897Y0425667D02*
X0290277Y0426167D01*
X0290720Y0426417D01*
X0291227Y0426500D01*
X0291860Y0426333D01*
X0292303Y0425917D01*
X0292430Y0425417D01*
X0292367Y0424917D01*
X0292113Y0424500D01*
X0290847Y0423667D01*
X0290277Y0423083D01*
X0289897Y0422250D01*
X0289770Y0421500D01*
X0292430D01*
G01X0275133Y0432500D02*
Y0437500D01*
X0276717D01*
X0277223Y0437250D01*
X0277540Y0436917D01*
X0277667Y0436250D01*
X0277540Y0435583D01*
X0277160Y0435167D01*
X0276717Y0434917D01*
X0275133D01*
G01X0276717D02*
X0277667Y0432500D01*
G01X0281500D02*
Y0437500D01*
X0280740Y0436500D01*
G01Y0432500D02*
X0282260D01*
G01X0286473D02*
X0286600Y0433583D01*
X0286790Y0434500D01*
X0287043Y0435333D01*
X0287360Y0436250D01*
X0287867Y0437500D01*
X0285333D01*
G01X0303633Y0085000D02*
X0303950Y0084500D01*
X0304330Y0084167D01*
X0304773Y0084000D01*
X0305280Y0084167D01*
X0305660Y0084500D01*
X0306040Y0085000D01*
X0306167Y0085667D01*
Y0089000D01*
G01X0310000Y0084000D02*
Y0089000D01*
X0309240Y0088000D01*
G01Y0084000D02*
X0310760D01*
G01X0315100D02*
Y0089000D01*
X0314340Y0088000D01*
G01Y0084000D02*
X0315860D01*
G01X0308683Y0166500D02*
X0309000Y0166000D01*
X0309380Y0165667D01*
X0309823Y0165500D01*
X0310330Y0165667D01*
X0310710Y0166000D01*
X0311090Y0166500D01*
X0311217Y0167167D01*
Y0170500D01*
G01X0315050Y0165500D02*
Y0170500D01*
X0314290Y0169500D01*
G01Y0165500D02*
X0315810D01*
G01X0313500Y0441367D02*
X0313000Y0441050D01*
X0312667Y0440670D01*
X0312500Y0440227D01*
X0312667Y0439720D01*
X0313000Y0439340D01*
X0313500Y0438960D01*
X0314167Y0438833D01*
X0317500D01*
G01X0312500Y0435000D02*
X0317500D01*
X0316500Y0435760D01*
G01X0312500D02*
Y0434240D01*
G01X0317500Y0429900D02*
X0317333Y0430407D01*
X0316917Y0430787D01*
X0316417Y0431040D01*
X0315750Y0431230D01*
X0315000Y0431293D01*
X0314250Y0431230D01*
X0313583Y0431040D01*
X0313083Y0430787D01*
X0312667Y0430407D01*
X0312500Y0429900D01*
X0312667Y0429393D01*
X0313083Y0429013D01*
X0313583Y0428760D01*
X0314250Y0428570D01*
X0315000Y0428507D01*
X0315750Y0428570D01*
X0316417Y0428760D01*
X0316917Y0429013D01*
X0317333Y0429393D01*
X0317500Y0429900D01*
G01X0311150Y0465500D02*
Y0468600D01*
X0310690Y0467980D01*
G01Y0465500D02*
X0311610D01*
G54D11*
G01X0029693Y0040762D02*
Y0045238D01*
G01X0004118Y0093912D02*
Y0030500D01*
X0023882D01*
Y0038072D01*
G01Y0043528D02*
Y0054985D01*
G01Y0055615D02*
Y0064985D01*
G01Y0065615D02*
Y0067047D01*
G01Y0072899D02*
Y0074985D01*
G01Y0075615D02*
Y0085485D01*
G01Y0086115D02*
Y0100500D01*
X0010706D01*
G01X0013762Y0114693D02*
X0018238D01*
G01X0014255Y0121307D02*
X0018238D01*
G01X0024167Y0165500D02*
X0017500D01*
Y0135500D01*
X0027500D01*
Y0162167D01*
G01X0127333Y0463000D02*
X0004000D01*
Y0443000D01*
X0065055D01*
G01X0036236Y0018238D02*
Y0012929D01*
X0065764D01*
Y0018238D01*
G01X0036307Y0040762D02*
Y0045238D01*
G01X0051698Y0042494D02*
X0047302D01*
G01X0036236Y0023762D02*
Y0029071D01*
X0065764D01*
Y0023762D01*
G01X0045780Y0057472D02*
Y0072709D01*
G01X0058220Y0061291D02*
Y0072709D01*
G01X0048598Y0088907D02*
X0044202D01*
G01X0048598Y0082293D02*
X0044202D01*
G01X0056667Y0165500D02*
X0050000D01*
Y0135500D01*
X0060000D01*
Y0162167D01*
G01X0052495Y0352500D02*
X0042500D01*
Y0332500D01*
X0048380D01*
G01X0054220D02*
X0122500D01*
Y0345833D01*
G01X0086914Y0352500D02*
X0057601D01*
G01X0034738Y0401693D02*
X0030262D01*
G01X0034738Y0418307D02*
X0030262D01*
G01X0034738Y0411693D02*
X0030262D01*
G01X0034738Y0428307D02*
X0030262D01*
G01X0034738Y0421693D02*
X0030262D01*
G01X0034738Y0408307D02*
X0030262D01*
G01X0034738Y0431693D02*
X0030262D01*
G01X0034738Y0438307D02*
X0030262D01*
G01X0120000Y0016333D02*
Y0023000D01*
X0090000D01*
Y0013000D01*
X0116667D01*
G01X0120000Y0030333D02*
Y0037000D01*
X0090000D01*
Y0027000D01*
X0116667D01*
G01X0084265Y0379508D02*
X0097612D01*
G01X0082388Y0405492D02*
X0097612D01*
G01X0070925Y0443000D02*
X0118655D01*
G01X0119693Y0166738D02*
Y0162262D01*
G01X0120804Y0180386D02*
X0117196D01*
G01X0120804Y0173614D02*
X0117196D01*
G01X0115833Y0352500D02*
X0111944D01*
G01X0106074D02*
X0092020D01*
G01X0122238Y0399193D02*
X0117762D01*
G01X0112193Y0391549D02*
Y0389802D01*
G01X0118807Y0394198D02*
Y0389802D01*
G01X0122238Y0405807D02*
X0117762D01*
G01X0131693Y0092698D02*
Y0088302D01*
G01X0138307Y0092698D02*
Y0088302D01*
G01X0139193Y0092698D02*
Y0088302D01*
G01X0145807Y0092698D02*
Y0088302D01*
G01X0131693Y0114238D02*
Y0109762D01*
G01X0138307Y0114238D02*
Y0109762D01*
G01X0126307Y0166738D02*
Y0162262D01*
G01X0121693Y0394198D02*
Y0389802D01*
G01X0128307Y0394198D02*
Y0389802D01*
G01X0152169Y0405500D02*
X0145000D01*
Y0395500D01*
X0171667D01*
G01X0175000Y0411333D02*
Y0418000D01*
X0145000D01*
Y0408000D01*
X0152122D01*
G01X0124145Y0443000D02*
X0134000D01*
Y0456333D01*
G01X0152760Y0085421D02*
Y0090539D01*
X0155411D01*
G01X0160969Y0115214D02*
Y0105949D01*
X0180555D01*
X0187071Y0112465D01*
Y0115214D01*
G01X0160969Y0122786D02*
Y0132051D01*
X0180555D01*
X0187071Y0125535D01*
Y0122786D01*
G01X0160000Y0145667D02*
Y0139000D01*
X0190000D01*
Y0149000D01*
X0163333D01*
G01X0236765Y0352500D02*
X0162500D01*
Y0332500D01*
X0166649D01*
G01X0168951D02*
X0196649D01*
G01X0175000Y0398833D02*
Y0405500D01*
X0157431D01*
G01X0157478Y0408000D02*
X0171667D01*
G01X0190240Y0085421D02*
Y0090539D01*
X0187589D01*
G01X0208762Y0115693D02*
X0213238D01*
G01X0208762Y0122307D02*
X0213238D01*
G01X0198951Y0332500D02*
X0226149D01*
G01X0200827Y0384698D02*
Y0383327D01*
X0202198D01*
G01X0200827Y0410302D02*
Y0411673D01*
X0202198D01*
G01X0309833Y0463000D02*
X0186500D01*
Y0446757D01*
G01X0189370Y0443000D02*
X0257671D01*
G01X0216804Y0010414D02*
X0213196D01*
G01X0226238Y0027307D02*
X0221762D01*
G01X0226238Y0020693D02*
X0221762D01*
G01X0236402Y0031493D02*
X0240798D01*
G01X0236402Y0038107D02*
X0238039D01*
G01X0216804Y0017186D02*
X0213196D01*
G01X0227734Y0052889D02*
Y0063111D01*
G01X0236198Y0085307D02*
X0231802D01*
G01X0236198Y0078693D02*
X0231802D01*
G01X0223142Y0097155D02*
Y0092142D01*
X0236488D01*
X0240898Y0096551D01*
G01X0223142Y0104845D02*
Y0109858D01*
X0236488D01*
X0240898Y0105449D01*
G01X0239315Y0122346D02*
X0226087D01*
G01X0237192Y0115654D02*
X0226087D01*
G01X0216693Y0166738D02*
Y0162262D01*
G01X0223307Y0166738D02*
Y0162262D01*
G01X0222196Y0173614D02*
X0225804D01*
G01X0222196Y0180386D02*
X0225804D01*
G01X0228451Y0332500D02*
X0256149D01*
G01X0229173Y0384698D02*
Y0383327D01*
X0227802D01*
G01X0229173Y0410302D02*
Y0411673D01*
X0227802D01*
G01X0255096Y0010414D02*
X0258704D01*
G01X0245762Y0020693D02*
X0250238D01*
G01X0245762Y0027307D02*
X0250238D01*
G01X0255096Y0017186D02*
X0258704D01*
G01X0263093Y0077238D02*
Y0072762D01*
G01X0269707Y0077238D02*
Y0072762D01*
G01X0261406Y0071198D02*
Y0066802D01*
G01X0248266Y0052889D02*
Y0058417D01*
G01X0253493Y0086838D02*
Y0082362D01*
G01X0260107Y0086838D02*
Y0082362D01*
G01X0249807Y0080702D02*
Y0085098D01*
G01X0243193Y0080702D02*
Y0085098D01*
G01X0258451Y0332500D02*
X0286649D01*
G01X0285833Y0352500D02*
X0242635D01*
G01X0243693Y0405698D02*
Y0401302D01*
G01X0250307Y0405698D02*
Y0401302D01*
G01X0251693Y0405698D02*
Y0401302D01*
G01X0258307Y0405698D02*
Y0401302D01*
G01X0249262Y0411193D02*
X0253738D01*
G01X0249262Y0417807D02*
X0253738D01*
G01X0258823Y0443000D02*
X0293852D01*
G01X0277493Y0078398D02*
Y0074002D01*
G01X0284107Y0078398D02*
Y0074002D01*
G01X0273762Y0086693D02*
X0278238D01*
G01X0273762Y0093307D02*
X0278238D01*
G01X0279198Y0103307D02*
X0274802D01*
G01X0279198Y0096693D02*
X0274802D01*
G01X0279238Y0122307D02*
X0274762D01*
G01X0279238Y0115693D02*
X0274762D01*
G01X0274262Y0107693D02*
X0278738D01*
G01X0274262Y0114307D02*
X0278738D01*
G01X0288307Y0135802D02*
Y0140198D01*
G01X0281693Y0135802D02*
Y0140198D01*
G01X0288951Y0332500D02*
X0292500D01*
Y0334533D01*
G01Y0337771D02*
Y0345833D01*
G01X0297762Y0401693D02*
X0302238D01*
G01X0297762Y0411693D02*
X0302238D01*
G01X0297762Y0418307D02*
X0302238D01*
G01X0297762Y0421693D02*
X0302238D01*
G01X0297762Y0428307D02*
X0302238D01*
G01X0297762Y0408307D02*
X0302238D01*
G01X0297762Y0431693D02*
X0302238D01*
G01X0297762Y0438307D02*
X0302238D01*
G01X0298148Y0443000D02*
X0316500D01*
Y0456333D01*
G01X0310833Y0143000D02*
X0317500D01*
Y0163000D01*
X0307500D01*
Y0146333D01*
M02*
