G04 ================== begin FILE IDENTIFICATION RECORD ==================*
G04 Layout Name:  mlpmcu-Rev1.9.brd*
G04 Film Name:    LaPi-SoldermaskBottom-Rev1-9-Final*
G04 File Format:  Gerber RS274X*
G04 File Origin:  Cadence Allegro 16.5-P002*
G04 Origin Date:  Wed Apr 10 14:32:15 2013*
G04 *
G04 Layer:  VIA CLASS/SOLDERMASK_BOTTOM*
G04 Layer:  BOARD GEOMETRY/SOLDERMASK_BOTTOM*
G04 Layer:  PACKAGE GEOMETRY/SOLDERMASK_BOTTOM*
G04 Layer:  PIN/SOLDERMASK_BOTTOM*
G04 *
G04 Offset:    (0.00 0.00)*
G04 Mirror:    No*
G04 Mode:      Positive*
G04 Rotation:  0*
G04 FullContactRelief:  No*
G04 UndefLineWidth:     0.00*
G04 ================== end FILE IDENTIFICATION RECORD ====================*
%FSAX25Y25*MOIN*%
%IR0*IPPOS*OFA0.00000B0.00000*MIA0B0*SFA1.00000B1.00000*%
%ADD18C,.026*%
%ADD12C,.044*%
%ADD11C,.073*%
%ADD13R,.073X.073*%
%ADD17R,.075X.075*%
%ADD16C,.05709*%
%ADD14C,.06496*%
%ADD15R,.06496X.06496*%
%ADD10C,.145*%
%LPD*%
G75*
G54D10*
X0015000Y0015000D03*
X0012500Y0385000D03*
X0160000Y0457000D03*
X0305000Y0015000D03*
X0307500Y0385000D03*
G54D11*
X0019000Y0035500D03*
X0009000D03*
X0019000Y0045500D03*
X0009000D03*
X0019000Y0055500D03*
X0009000D03*
X0019000Y0065500D03*
X0009000D03*
X0019000Y0075500D03*
X0009000D03*
X0019000Y0085500D03*
X0009000D03*
X0019000Y0095500D03*
G54D12*
X0022800Y0040800D03*
X0027721Y0019550D03*
X0026800Y0075300D03*
Y0065300D03*
Y0055300D03*
X0023650Y0069973D03*
X0018800Y0104300D03*
X0026800Y0085800D03*
X0013650Y0124179D03*
X0018800Y0111300D03*
X0013000Y0129500D03*
X0007800Y0186300D03*
Y0247800D03*
X0007300Y0316300D03*
X0025800Y0334800D03*
X0003800Y0329800D03*
X0018000Y0334500D03*
Y0319500D03*
X0003800Y0325800D03*
X0021800Y0362300D03*
X0005800Y0362800D03*
X0013800Y0374300D03*
X0013000Y0353500D03*
X0026800Y0377300D03*
X0029800Y0394800D03*
X0013300Y0395300D03*
X0040800Y0045800D03*
X0033000Y0034587D03*
X0049780Y0051023D03*
X0042300Y0064800D03*
X0044800Y0053300D03*
X0037300Y0085800D03*
X0042320Y0079465D03*
X0040800Y0170800D03*
X0038800Y0334300D03*
X0038300Y0342300D03*
X0051300Y0332800D03*
X0055048Y0353948D03*
X0040343Y0368100D03*
X0046500Y0356500D03*
X0055048Y0377500D03*
X0052002Y0385164D03*
X0040913Y0404016D03*
X0045552Y0379982D03*
X0054056Y0391220D03*
X0049099Y0406216D03*
X0057500D03*
X0046899Y0410616D03*
X0044699Y0424728D03*
X0060500Y0438881D03*
X0070800Y0011300D03*
X0087300Y0043300D03*
X0070300Y0031300D03*
Y0020800D03*
X0086800Y0074300D03*
X0086300Y0128800D03*
X0083300Y0156300D03*
X0085800Y0141800D03*
X0069800Y0169800D03*
X0080300Y0371800D03*
X0086300Y0364800D03*
X0062248Y0371801D03*
X0082888Y0376916D03*
X0089467Y0353948D03*
X0073890Y0401457D03*
X0065790Y0398898D03*
X0073890Y0396339D03*
X0067990D03*
X0065048Y0388661D03*
X0070090Y0386102D03*
X0073890Y0422000D03*
X0065790Y0420000D03*
X0079000Y0410616D03*
X0088300Y0437300D03*
X0067990Y0443052D03*
X0110969Y0177000D03*
X0114800Y0362800D03*
X0094448Y0374000D03*
X0117000Y0357648D03*
X0109009Y0352448D03*
Y0374716D03*
X0103310Y0376916D03*
X0114300Y0383800D03*
X0110000Y0393500D03*
X0121400Y0384633D03*
X0106110Y0385970D03*
X0106322Y0388870D03*
X0107410Y0401457D03*
X0096800Y0437300D03*
X0121400Y0441960D03*
X0113948Y0452748D03*
X0150800Y0051300D03*
X0148300Y0074800D03*
X0128800Y0075300D03*
X0149800Y0068800D03*
X0128800Y0085800D03*
X0148300D03*
X0151800Y0119300D03*
X0130000Y0158000D03*
X0134000Y0329500D03*
X0145300Y0332300D03*
X0135500Y0362051D03*
X0125800Y0371800D03*
X0146300Y0355300D03*
X0130500Y0350500D03*
X0122248Y0352448D03*
X0132300Y0387800D03*
X0129300Y0401300D03*
X0132800Y0377800D03*
X0145800Y0380300D03*
X0142000Y0433500D03*
X0131300Y0432300D03*
X0145800Y0452300D03*
Y0462800D03*
X0171300Y0049300D03*
X0171800Y0102300D03*
X0171300Y0086800D03*
X0171800Y0135300D03*
X0163300Y0109800D03*
Y0127300D03*
X0159300Y0337300D03*
X0167800Y0329800D03*
X0157800Y0355300D03*
X0157300Y0375300D03*
X0155600Y0350500D03*
X0177500Y0374074D03*
X0154800Y0406800D03*
X0175300Y0382221D03*
Y0392776D03*
X0177592Y0388169D03*
X0172548Y0388248D03*
X0158000Y0433500D03*
X0180800Y0446800D03*
Y0464800D03*
X0172800Y0456300D03*
Y0462800D03*
X0210965Y0036635D03*
X0191800Y0050800D03*
X0193300Y0068800D03*
X0210965Y0074665D03*
X0192800Y0081800D03*
X0197800Y0329800D03*
X0196450Y0358948D03*
X0190200Y0376972D03*
X0194600D03*
X0206583Y0376272D03*
X0194600Y0374072D03*
Y0371172D03*
X0194400Y0361848D03*
X0196450Y0379872D03*
X0191572Y0402224D03*
X0193772Y0395925D03*
X0205073Y0434828D03*
X0193772Y0424728D03*
X0210248Y0430428D03*
X0202248Y0418728D03*
X0186552Y0443822D03*
X0239260Y0040776D03*
X0223800Y0065800D03*
Y0051300D03*
X0235300Y0076300D03*
X0234300Y0087800D03*
X0224300Y0090800D03*
X0214800Y0094300D03*
X0224300Y0078300D03*
X0229300Y0087800D03*
X0217507Y0100000D03*
X0240102Y0115272D03*
X0223800Y0112800D03*
X0214800Y0108800D03*
X0240102Y0175501D03*
X0232532Y0177000D03*
X0227300Y0329800D03*
X0239700Y0352448D03*
X0222752Y0371972D03*
X0229700D03*
X0235300Y0364200D03*
X0219467Y0361848D03*
X0222874Y0375672D03*
X0242000Y0396375D03*
X0239700Y0408730D03*
X0237500Y0411268D03*
X0222331Y0418728D03*
X0216575Y0420029D03*
X0232248Y0426128D03*
X0224951Y0420928D03*
X0247300Y0032300D03*
X0249753Y0034779D03*
X0245831Y0038479D03*
X0252800Y0061300D03*
X0249879Y0060869D03*
X0253821Y0067724D03*
X0268800Y0099800D03*
X0261300Y0100000D03*
X0249879Y0091031D03*
X0265699Y0111000D03*
X0257300Y0329800D03*
X0269700Y0360500D03*
X0262752D03*
X0257500Y0366460D03*
X0259300Y0381800D03*
X0250800Y0395800D03*
X0263000Y0397375D03*
X0251248Y0386476D03*
X0247500Y0389626D03*
X0245652Y0392776D03*
X0265800Y0409300D03*
X0245216Y0434828D03*
X0257500Y0432628D03*
X0248548Y0434828D03*
Y0426928D03*
X0254448D03*
X0263152Y0430428D03*
X0264064Y0436422D03*
X0258247Y0440122D03*
X0284800Y0008300D03*
X0300800Y0037300D03*
X0284800D03*
Y0022300D03*
X0275800Y0065800D03*
X0300300Y0050300D03*
X0284800D03*
X0286300Y0071800D03*
X0283799Y0066700D03*
X0293800Y0100800D03*
X0293300Y0134300D03*
Y0125800D03*
X0292800Y0151800D03*
X0276300Y0142800D03*
X0290800D03*
X0287800Y0329800D03*
X0294948Y0336152D03*
X0291300Y0363800D03*
X0277300Y0358300D03*
X0282248Y0375461D03*
X0299848Y0365000D03*
X0297800Y0384800D03*
X0277800Y0400300D03*
X0278300Y0380300D03*
X0280000Y0389000D03*
Y0402800D03*
X0285000Y0428000D03*
X0272248Y0423128D03*
X0277101Y0418728D03*
X0291288Y0436422D03*
X0290787Y0417501D03*
X0289000Y0445000D03*
X0296000D03*
X0276448Y0446164D03*
X0315300Y0037300D03*
Y0050300D03*
X0312800Y0106800D03*
X0305300Y0094300D03*
X0303300Y0089300D03*
X0317800D03*
X0312800Y0122300D03*
Y0114300D03*
X0306800Y0138800D03*
X0303300Y0143300D03*
X0312800Y0139300D03*
X0303300Y0148000D03*
Y0169800D03*
Y0193700D03*
X0302800Y0250300D03*
X0303300Y0246300D03*
Y0306300D03*
X0308000Y0330500D03*
X0306300Y0324300D03*
X0306800Y0374800D03*
X0306300Y0363300D03*
Y0394800D03*
X0316248Y0424628D03*
G54D13*
X0009000Y0095500D03*
G54D14*
X0022500Y0140500D03*
Y0150500D03*
X0009000Y0448000D03*
Y0458000D03*
X0019000Y0448000D03*
Y0458000D03*
X0029000Y0448000D03*
Y0458000D03*
X0055000Y0140500D03*
Y0150500D03*
X0047500Y0337500D03*
Y0347500D03*
X0057500Y0337500D03*
Y0347500D03*
X0039000Y0448000D03*
Y0458000D03*
X0049000Y0448000D03*
Y0458000D03*
X0059000Y0448000D03*
Y0458000D03*
X0067500Y0337500D03*
Y0347500D03*
X0077500Y0337500D03*
Y0347500D03*
X0087500Y0337500D03*
Y0347500D03*
X0069000Y0448000D03*
Y0458000D03*
X0079000Y0448000D03*
Y0458000D03*
X0089000Y0448000D03*
Y0458000D03*
X0095000Y0018000D03*
X0105000D03*
X0095000Y0032000D03*
X0105000D03*
X0097500Y0337500D03*
Y0347500D03*
X0107500Y0337500D03*
Y0347500D03*
X0117500Y0337500D03*
X0099000Y0448000D03*
Y0458000D03*
X0109000Y0448000D03*
Y0458000D03*
X0119000Y0448000D03*
Y0458000D03*
X0150000Y0400500D03*
Y0413000D03*
X0129000Y0448000D03*
X0175000Y0144000D03*
X0167500Y0337500D03*
Y0347500D03*
X0177500Y0337500D03*
Y0347500D03*
X0160000Y0400500D03*
Y0413000D03*
X0185000Y0144000D03*
X0187500Y0337500D03*
Y0347500D03*
X0197500Y0337500D03*
Y0347500D03*
X0207500Y0337500D03*
Y0347500D03*
X0191500Y0448000D03*
Y0458000D03*
X0201500Y0448000D03*
Y0458000D03*
X0211500Y0448000D03*
Y0458000D03*
X0217500Y0337500D03*
Y0347500D03*
X0227500Y0337500D03*
Y0347500D03*
X0237500Y0337500D03*
Y0347500D03*
X0221500Y0448000D03*
Y0458000D03*
X0231500Y0448000D03*
Y0458000D03*
X0241500Y0448000D03*
Y0458000D03*
X0247500Y0337500D03*
Y0347500D03*
X0257500Y0337500D03*
Y0347500D03*
X0267500Y0337500D03*
Y0347500D03*
X0251500Y0448000D03*
Y0458000D03*
X0261500Y0448000D03*
Y0458000D03*
X0271500Y0448000D03*
Y0458000D03*
X0277500Y0337500D03*
Y0347500D03*
X0287500Y0337500D03*
X0281500Y0448000D03*
Y0458000D03*
X0291500Y0448000D03*
Y0458000D03*
X0301500Y0448000D03*
Y0458000D03*
X0312500Y0158000D03*
X0311500Y0448000D03*
G54D15*
X0022500Y0160500D03*
X0055000D03*
X0115000Y0018000D03*
Y0032000D03*
X0117500Y0347500D03*
X0129000Y0458000D03*
X0165000Y0144000D03*
X0170000Y0400500D03*
Y0413000D03*
X0287500Y0347500D03*
X0312500Y0148000D03*
X0311500Y0458000D03*
G54D16*
X0057500Y0190000D03*
X0047500D03*
X0057500Y0220000D03*
Y0210000D03*
Y0200000D03*
X0047500Y0220000D03*
Y0210000D03*
Y0200000D03*
X0057500Y0250000D03*
Y0240000D03*
Y0230000D03*
X0047500Y0250000D03*
Y0240000D03*
Y0230000D03*
X0057500Y0270000D03*
Y0260000D03*
X0047500Y0270000D03*
Y0260000D03*
X0057500Y0320000D03*
X0047500D03*
X0087500Y0190000D03*
X0077500D03*
X0067500D03*
X0087500Y0220000D03*
Y0210000D03*
Y0200000D03*
X0077500Y0220000D03*
Y0210000D03*
Y0200000D03*
X0067500Y0220000D03*
Y0210000D03*
Y0200000D03*
X0087500Y0250000D03*
Y0240000D03*
Y0230000D03*
X0077500Y0250000D03*
Y0240000D03*
Y0230000D03*
X0067500Y0250000D03*
Y0240000D03*
Y0230000D03*
X0087500Y0270000D03*
Y0260000D03*
X0077500Y0270000D03*
Y0260000D03*
X0067500Y0270000D03*
Y0260000D03*
X0087500Y0320000D03*
X0077500D03*
X0067500D03*
X0117500Y0190000D03*
X0107500D03*
X0097500D03*
X0117500Y0220000D03*
Y0210000D03*
Y0200000D03*
X0107500Y0220000D03*
Y0210000D03*
Y0200000D03*
X0097500Y0220000D03*
Y0210000D03*
Y0200000D03*
X0117500Y0250000D03*
Y0240000D03*
Y0230000D03*
X0107500Y0250000D03*
Y0240000D03*
Y0230000D03*
X0097500Y0250000D03*
Y0240000D03*
Y0230000D03*
X0117500Y0270000D03*
Y0260000D03*
X0107500Y0270000D03*
Y0260000D03*
X0097500Y0270000D03*
Y0260000D03*
X0117500Y0320000D03*
X0107500D03*
X0097500D03*
X0147500Y0190000D03*
X0137500D03*
X0127500D03*
X0147500Y0220000D03*
Y0210000D03*
Y0200000D03*
X0137500Y0220000D03*
Y0210000D03*
Y0200000D03*
X0127500Y0220000D03*
Y0210000D03*
Y0200000D03*
X0147500Y0250000D03*
Y0240000D03*
Y0230000D03*
X0137500Y0250000D03*
Y0240000D03*
Y0230000D03*
X0127500Y0250000D03*
Y0240000D03*
Y0230000D03*
X0147500Y0280000D03*
Y0270000D03*
Y0260000D03*
X0137500Y0280000D03*
Y0270000D03*
Y0260000D03*
X0127500Y0280000D03*
Y0270000D03*
Y0260000D03*
X0147500Y0310000D03*
Y0300000D03*
Y0290000D03*
X0137500Y0310000D03*
Y0300000D03*
Y0290000D03*
X0127500Y0310000D03*
Y0300000D03*
Y0290000D03*
X0147500Y0320000D03*
X0137500D03*
X0127500D03*
X0177500Y0190000D03*
X0167500D03*
X0157500D03*
X0177500Y0220000D03*
Y0210000D03*
Y0200000D03*
X0167500Y0220000D03*
Y0210000D03*
Y0200000D03*
X0157500Y0220000D03*
Y0210000D03*
Y0200000D03*
X0177500Y0250000D03*
Y0240000D03*
Y0230000D03*
X0167500Y0250000D03*
Y0240000D03*
Y0230000D03*
X0157500Y0250000D03*
Y0240000D03*
Y0230000D03*
X0177500Y0280000D03*
Y0270000D03*
Y0260000D03*
X0167500Y0280000D03*
Y0270000D03*
Y0260000D03*
X0157500Y0280000D03*
Y0270000D03*
Y0260000D03*
X0177500Y0310000D03*
Y0300000D03*
Y0290000D03*
X0167500Y0310000D03*
Y0300000D03*
Y0290000D03*
X0157500Y0310000D03*
Y0300000D03*
Y0290000D03*
X0177500Y0320000D03*
X0167500D03*
X0157500D03*
X0207500Y0190000D03*
X0197500D03*
X0187500D03*
X0207500Y0220000D03*
Y0210000D03*
Y0200000D03*
X0197500Y0220000D03*
Y0210000D03*
Y0200000D03*
X0187500Y0220000D03*
Y0210000D03*
Y0200000D03*
X0207500Y0250000D03*
Y0240000D03*
Y0230000D03*
X0197500Y0250000D03*
Y0240000D03*
Y0230000D03*
X0187500Y0250000D03*
Y0240000D03*
Y0230000D03*
X0207500Y0280000D03*
Y0270000D03*
Y0260000D03*
X0197500Y0280000D03*
Y0270000D03*
Y0260000D03*
X0187500Y0280000D03*
Y0270000D03*
Y0260000D03*
X0207500Y0310000D03*
Y0300000D03*
Y0290000D03*
X0197500Y0310000D03*
Y0300000D03*
Y0290000D03*
X0187500Y0310000D03*
Y0300000D03*
Y0290000D03*
X0207500Y0320000D03*
X0197500D03*
X0187500D03*
X0237500Y0190000D03*
X0227500D03*
X0217500D03*
X0237500Y0220000D03*
Y0210000D03*
Y0200000D03*
X0227500Y0220000D03*
Y0210000D03*
Y0200000D03*
X0217500Y0220000D03*
Y0210000D03*
Y0200000D03*
X0237500Y0250000D03*
Y0240000D03*
Y0230000D03*
X0227500Y0250000D03*
Y0240000D03*
Y0230000D03*
X0217500Y0250000D03*
Y0240000D03*
Y0230000D03*
X0237500Y0280000D03*
Y0270000D03*
Y0260000D03*
X0227500Y0280000D03*
Y0270000D03*
Y0260000D03*
X0217500Y0280000D03*
Y0270000D03*
Y0260000D03*
X0237500Y0310000D03*
Y0300000D03*
Y0290000D03*
X0227500Y0310000D03*
Y0300000D03*
Y0290000D03*
X0217500Y0310000D03*
Y0300000D03*
Y0290000D03*
X0237500Y0320000D03*
X0227500D03*
X0217500D03*
X0267500Y0190000D03*
X0257500D03*
X0247500D03*
X0267500Y0220000D03*
Y0210000D03*
Y0200000D03*
X0257500Y0220000D03*
Y0210000D03*
Y0200000D03*
X0247500Y0220000D03*
Y0210000D03*
Y0200000D03*
X0267500Y0250000D03*
Y0240000D03*
Y0230000D03*
X0257500Y0250000D03*
Y0240000D03*
Y0230000D03*
X0247500Y0250000D03*
Y0240000D03*
Y0230000D03*
X0267500Y0280000D03*
Y0270000D03*
Y0260000D03*
X0257500Y0280000D03*
Y0270000D03*
Y0260000D03*
X0247500Y0280000D03*
Y0270000D03*
Y0260000D03*
X0267500Y0310000D03*
Y0300000D03*
Y0290000D03*
X0257500Y0310000D03*
Y0300000D03*
Y0290000D03*
X0247500Y0310000D03*
Y0300000D03*
Y0290000D03*
X0267500Y0320000D03*
X0257500D03*
X0247500D03*
X0287500Y0190000D03*
X0277500D03*
X0287500Y0220000D03*
Y0210000D03*
Y0200000D03*
X0277500Y0220000D03*
Y0210000D03*
Y0200000D03*
X0287500Y0250000D03*
Y0240000D03*
Y0230000D03*
X0277500Y0250000D03*
Y0240000D03*
Y0230000D03*
X0287500Y0280000D03*
Y0270000D03*
Y0260000D03*
X0277500Y0280000D03*
Y0270000D03*
Y0260000D03*
X0287500Y0310000D03*
Y0300000D03*
Y0290000D03*
X0277500Y0310000D03*
Y0300000D03*
Y0290000D03*
X0287500Y0320000D03*
X0277500D03*
G54D17*
X0057500Y0280000D03*
X0047500D03*
X0057500Y0310000D03*
Y0300000D03*
Y0290000D03*
X0047500Y0310000D03*
Y0300000D03*
Y0290000D03*
X0087500Y0280000D03*
X0077500D03*
X0067500D03*
X0087500Y0310000D03*
Y0300000D03*
Y0290000D03*
X0077500Y0310000D03*
Y0300000D03*
Y0290000D03*
X0067500Y0310000D03*
Y0300000D03*
Y0290000D03*
X0117500Y0280000D03*
X0107500D03*
X0097500D03*
X0117500Y0310000D03*
Y0300000D03*
Y0290000D03*
X0107500Y0310000D03*
Y0300000D03*
Y0290000D03*
X0097500Y0310000D03*
Y0300000D03*
Y0290000D03*
G54D18*
X0171500Y0068896D03*
X0180300Y0069300D03*
Y0061300D03*
X0162300Y0060800D03*
Y0068800D03*
X0171300Y0060800D03*
X0175800Y0072800D03*
X0166800D03*
X0158300D03*
Y0064800D03*
X0166800D03*
X0175800D03*
Y0056800D03*
X0167300D03*
X0157800D03*
X0171300Y0077300D03*
X0158300Y0080800D03*
X0166800D03*
X0175800D03*
X0180300Y0076800D03*
X0162300D03*
X0184800Y0072800D03*
Y0064800D03*
Y0056800D03*
Y0080800D03*
M02*
